<svg width="25" height="25" viewBox="0 0 25 25" fill="none" xmlns="http://www.w3.org/2000/svg">
<path d="M5.25098 17.25H4.25098C3.72054 17.25 3.21184 17.0393 2.83676 16.6642C2.46169 16.2891 2.25098 15.7804 2.25098 15.25V5.25C2.25098 4.71957 2.46169 4.21086 2.83676 3.83579C3.21184 3.46071 3.72054 3.25 4.25098 3.25H20.251C20.7814 3.25 21.2901 3.46071 21.6652 3.83579C22.0403 4.21086 22.251 4.71957 22.251 5.25V15.25C22.251 15.7804 22.0403 16.2891 21.6652 16.6642C21.2901 17.0393 20.7814 17.25 20.251 17.25H19.251" stroke="#829097" stroke-width="1.5" stroke-linecap="round" stroke-linejoin="round"/>
<path d="M12.251 15.25L17.251 21.25H7.25098L12.251 15.25Z" stroke="#829097" stroke-width="1.5" stroke-linecap="round" stroke-linejoin="round"/>
</svg>
