<svg width="28" height="28" viewBox="0 0 28 28" fill="none" xmlns="http://www.w3.org/2000/svg">
<path d="M13.751 5.82623C14.1032 5.82623 14.4688 5.94525 15.0074 6.30098C15.5636 6.66831 16.2212 7.23018 17.1676 8.04137L20.1676 10.6128C21.2506 11.5411 21.6053 11.8662 21.7951 12.2789C21.9849 12.6916 22.001 13.1725 22.001 14.5989V18.375C22.001 19.8104 21.9994 20.8115 21.8978 21.5669C21.7992 22.3007 21.6187 22.6892 21.342 22.966C21.0652 23.2428 20.6766 23.4232 19.9429 23.5219C19.1875 23.6234 18.1864 23.625 16.751 23.625H10.751C9.31556 23.625 8.31445 23.6234 7.5591 23.5219C6.82532 23.4232 6.43675 23.2428 6.15999 22.966C5.88322 22.6892 5.70278 22.3007 5.60412 21.5669C5.50257 20.8115 5.50098 19.8104 5.50098 18.375V14.5989C5.50098 13.1725 5.51702 12.6916 5.70682 12.2789C5.89663 11.8662 6.25132 11.5411 7.33432 10.6128L10.3343 8.04137C11.2807 7.23018 11.9384 6.66831 12.4945 6.30098C13.0331 5.94525 13.3988 5.82623 13.751 5.82623Z" stroke="#829097" stroke-width="1.5"/>
<path d="M17.126 23.4475H17.876V22.6975V18.75C17.876 16.4718 16.0292 14.625 13.751 14.625C11.4728 14.625 9.62598 16.4718 9.62598 18.75V22.6975V23.4475H10.376H17.126Z" stroke="#829097" stroke-width="1.5"/>
</svg>
