<svg width="56" height="70" viewBox="0 0 56 70" fill="none" xmlns="http://www.w3.org/2000/svg">
<path d="M35.9781 46.8241L36.1138 46.8111L36.1138 46.8111L36.1139 46.8111L36.1147 46.811L36.1183 46.8107L36.1339 46.809C36.1479 46.8074 36.169 46.805 36.1968 46.8014C36.2524 46.7942 36.3348 46.7827 36.4402 46.7652C36.6511 46.7302 36.954 46.6716 37.3199 46.5772C38.052 46.3882 39.0335 46.0565 40.0325 45.4863C42.0261 44.3482 44.0911 42.2607 44.3877 38.4397C44.6548 34.6892 44.5881 26.9236 44.4431 19.8844L44.5931 19.8813L44.4431 19.8844C44.3689 16.2772 42.9385 12.8304 40.4369 10.2305C37.9363 7.63177 34.5487 6.07001 30.9487 5.85605H30.2059C26.1932 5.85605 23.0721 7.5517 20.9769 10.2481C18.879 12.9479 17.804 16.6594 17.9093 20.6916L17.9093 20.6941L18.1875 51.0703L31.2124 61.5279L32.0188 61.4622L35.9781 51.3932V51.3807V51.367V51.3534V51.3398V51.3262V51.3126V51.299V51.2855V51.2719V51.2584V51.2448V51.2313V51.2178V51.2043V51.1908V51.1773V51.1638V51.1504V51.1369V51.1234V51.11V51.0966V51.0832V51.0698V51.0564V51.043V51.0296V51.0163V51.0029V50.9896V50.9762V50.9629V50.9496V50.9363V50.923V50.9098V50.8965V50.8833V50.87V50.8568V50.8436V50.8304V50.8172V50.804V50.7908V50.7777V50.7646V50.7514V50.7383V50.7252V50.7121V50.699V50.686V50.6729V50.6599V50.6468V50.6338V50.6208V50.6078V50.5948V50.5819V50.5689V50.556V50.543V50.5301V50.5172V50.5043V50.4914V50.4786V50.4657V50.4529V50.4401V50.4273V50.4145V50.4017V50.3889V50.3762V50.3634V50.3507V50.338V50.3253V50.3126V50.2999V50.2873V50.2746V50.262V50.2494V50.2368V50.2242V50.2117V50.1991V50.1866V50.174V50.1615V50.149V50.1366V50.1241V50.1116V50.0992V50.0868V50.0744V50.062V50.0496V50.0373V50.0249V50.0126V50.0003V49.988V49.9757V49.9634V49.9512V49.939V49.9267V49.9145V49.9024V49.8902V49.878V49.8659V49.8538V49.8417V49.8296V49.8175V49.8055V49.7934V49.7814V49.7694V49.7574V49.7454V49.7335V49.7216V49.7096V49.6977V49.6858V49.674V49.6621V49.6503V49.6385V49.6267V49.6149V49.6031V49.5914V49.5797V49.568V49.5563V49.5446V49.5329V49.5213V49.5097V49.4981V49.4865V49.4749V49.4634V49.4518V49.4403V49.4288V49.4174V49.4059V49.3945V49.383V49.3716V49.3603V49.3489V49.3376V49.3262V49.3149V49.3036V49.2924V49.2811V49.2699V49.2587V49.2475V49.2363V49.2252V49.214V49.2029V49.1918V49.1808V49.1697V49.1587V49.1477V49.1367V49.1257V49.1147V49.1038V49.0929V49.082V49.0711V49.0603V49.0495V49.0387V49.0279V49.0171V49.0063V48.9956V48.9849V48.9742V48.9636V48.9529V48.9423V48.9317V48.9211V48.9105V48.9V48.8895V48.879V48.8685V48.8581V48.8476V48.8372V48.8268V48.8165V48.8061V48.7958V48.7855V48.7752V48.765V48.7547V48.7445V48.7343V48.7242V48.714V48.7039V48.6938V48.6837V48.6737V48.6637V48.6536V48.6437V48.6337V48.6238V48.6138V48.6039V48.5941V48.5842V48.5744V48.5646V48.5548V48.5451V48.5353V48.5256V48.5159V48.5063V48.4966V48.487V48.4774V48.4679V48.4583V48.4488V48.4393V48.4298V48.4204V48.411V48.4016V48.3922V48.3828V48.3735V48.3642V48.3549V48.3457V48.3365V48.3273V48.3181V48.3089V48.2998V48.2907V48.2816V48.2726V48.2636V48.2546V48.2456V48.2366V48.2277V48.2188V48.2099V48.2011V48.1923V48.1835V48.1747V48.1659V48.1572V48.1485V48.1399V48.1312V48.1226V48.114V48.1054V48.0969V48.0884V48.0799V48.0715V48.063V48.0546V48.0462V48.0379V48.0296V48.0213V48.013V48.0047V47.9965V47.9883V47.9802V47.972V47.9639V47.9558V47.9478V47.9398V47.9318V47.9238V47.9158V47.9079V47.9V47.8922V47.8843V47.8765V47.8688V47.861V47.8533V47.8456V47.8379V47.8303V47.8227V47.8151V47.8076V47.8V47.7925V47.7851V47.7776V47.7702V47.7628V47.7555V47.7482V47.7409V47.7336V47.7264V47.7192V47.712V47.7048V47.6977V47.6906V47.6836V47.6765V47.6695V47.6626V47.6556V47.6487V47.6418V47.635V47.6282V47.6214V47.6146V47.6079V47.6012V47.5945V47.5879V47.5812V47.5747V47.5681V47.5616V47.5551V47.5486V47.5422V47.5358V47.5294V47.5231V47.5168V47.5105V47.5043V47.4981V47.4919V47.4857V47.4796V47.4735V47.4675V47.4615V47.4555V47.4495V47.4436V47.4377V47.4318V47.426V47.4202V47.4144V47.4087V47.403V47.3973V47.3916V47.386V47.3805V47.3749V47.3694V47.3639V47.3585V47.3531V47.3477V47.3423V47.337V47.3317V47.3265V47.3212V47.3161V47.3109V47.3058V47.3007V47.2956V47.2906V47.2856V47.2807V47.2758V47.2709V47.266V47.2612V47.2564V47.2517V47.2469V47.2423V47.2376V47.233V47.2284V47.2239V47.2194V47.2149V47.2104V47.206V47.2016V47.1973V47.193V47.1887V47.1845V47.1803V47.1761V47.172V47.1679V47.1638V47.1598V47.1558V47.1518V47.1479V47.144V47.1402V47.1363V47.1326V47.1288V47.1251V47.1214V47.1178V47.1142V47.1106V47.1071V47.1036V47.1001V47.0967V47.0933V47.0899V47.0866V47.0833V47.0801V47.0769V47.0737V47.0706V47.0675V47.0644V47.0614V47.0584V47.0555V47.0525V47.0497V47.0468V47.044V47.0413V47.0385V47.0358V47.0332V47.0306V47.028V47.0254V47.0229V47.0205V47.018V47.0156V47.0133V47.011V47.0087V47.0064V47.0042V47.0021V46.9999V46.9978V46.9958V46.9938V46.9918V46.9899V46.988V46.9861V46.9843V46.9825V46.9808V46.9791V46.9774V46.9758V46.9742V46.9726V46.9711V46.9697V46.9682V46.9668V46.9655V46.9642V46.9629V46.9616V46.9604V46.8241Z" stroke="#98BBFE" stroke-width="0.3"/>
<path d="M36.1511 46.9266C32.5595 46.6984 29.1078 45.4486 26.2028 43.3242C26.2028 43.3242 28.333 49.146 36.1289 48.9006L36.1511 46.9266Z" fill="#98BDFE"/>
<path d="M31.3881 23.2048C31.2431 23.3609 30.2728 22.6471 29.0348 22.636C27.7969 22.6248 26.8043 23.2606 26.637 23.0933C26.4697 22.926 26.7151 22.7364 27.1389 22.4352C27.7072 22.0483 28.3809 21.8458 29.0683 21.8553C29.7473 21.8681 30.4041 22.0988 30.942 22.5133C31.3323 22.8367 31.4662 23.1267 31.3881 23.2048Z" fill="#98BDFE"/>
<path d="M30.4292 26.751C30.4235 26.8907 30.39 27.0278 30.3306 27.1544C30.2711 27.2809 30.187 27.3943 30.0831 27.4878C29.9791 27.5813 29.8576 27.6531 29.7255 27.699C29.5934 27.7448 29.4534 27.7638 29.3139 27.7547C29.1793 27.7577 29.0454 27.7336 28.9203 27.6838C28.7952 27.634 28.6814 27.5596 28.5857 27.4649C28.4899 27.3702 28.4143 27.2572 28.3631 27.1326C28.3119 27.0081 28.2863 26.8745 28.2879 26.7398C28.2935 26.6001 28.3271 26.463 28.3865 26.3364C28.446 26.2099 28.5302 26.0965 28.6341 26.003C28.738 25.9095 28.8596 25.8377 28.9917 25.7918C29.1237 25.746 29.2636 25.727 29.4032 25.7361C29.5374 25.7346 29.6706 25.7598 29.795 25.8101C29.9194 25.8605 30.0326 25.935 30.1281 26.0294C30.2235 26.1238 30.2992 26.2361 30.3509 26.36C30.4026 26.4839 30.4292 26.6168 30.4292 26.751Z" fill="#98BDFE"/>
<path d="M34.7674 32.2054C35.4039 32.0365 36.0608 31.9577 36.7191 31.9711C37.0314 31.9711 37.3214 31.9711 37.3884 31.7035C37.4343 31.391 37.3837 31.0719 37.2434 30.7889L36.4738 28.4134C35.7587 26.393 35.203 24.3197 34.8121 22.2124C35.6911 24.1711 36.4145 26.1961 36.9756 28.2684C37.221 29.0937 37.4664 29.8967 37.6894 30.6551C37.8661 31.032 37.8978 31.4608 37.7787 31.8596C37.7307 31.9654 37.6581 32.058 37.5668 32.1298C37.4756 32.2016 37.3685 32.2505 37.2545 32.2723C37.0807 32.2981 36.9041 32.2981 36.7303 32.2723C36.0757 32.329 35.4166 32.3066 34.7674 32.2054Z" fill="#98BDFE"/>
<path d="M30.743 19.0333C30.6203 19.3233 29.6276 19.1114 28.3339 19.2006C27.0402 19.2898 26.1034 19.5687 25.9249 19.2898C25.7465 19.011 26.0476 18.8883 26.4602 18.6207C27.0158 18.3021 27.6386 18.1187 28.2782 18.0853C28.918 18.045 29.558 18.1638 30.1407 18.4311C30.5868 18.643 30.7987 18.8883 30.743 19.0333Z" fill="#98BDFE"/>
<path d="M42.942 19.7693C42.8082 20.0035 41.8267 19.7693 40.5553 19.7693C39.2839 19.7693 38.3247 19.9143 38.1797 19.6689C38.0348 19.4236 38.3136 19.3455 38.7374 19.1559C39.3114 18.9129 39.9327 18.8024 40.5553 18.8325C41.1839 18.8377 41.804 18.9785 42.3732 19.2451C42.797 19.4347 42.9978 19.6243 42.942 19.7693Z" fill="#98BDFE"/>
<path d="M18.4104 26.7251L18.4146 26.5088C18.3742 26.495 18.3219 26.478 18.259 26.4591C18.1101 26.4143 17.9034 26.3594 17.6584 26.3116C17.1669 26.2157 16.5285 26.1497 15.8943 26.2459C15.2616 26.3419 14.6404 26.5977 14.1674 27.1395C13.6943 27.6816 13.3542 28.5276 13.3186 29.8337C13.283 31.138 13.5859 32.0421 14.0458 32.6675C14.5061 33.2934 15.1344 33.6547 15.7754 33.8533C16.4176 34.0523 17.0674 34.0863 17.5584 34.0603C17.8037 34.0473 18.0065 34.0195 18.1461 33.991C18.1946 33.9811 18.2337 33.9715 18.2635 33.9628L18.2641 33.9409C18.2658 33.8777 18.2679 33.7894 18.2704 33.6795C18.2755 33.4598 18.2821 33.1544 18.2896 32.7921C18.3048 32.0676 18.324 31.1162 18.3428 30.1696C18.3616 29.223 18.3801 28.2813 18.3938 27.5763L18.4104 26.7251Z" fill="white" stroke="#98BDFE" stroke-width="0.3"/>
<path d="M16.9429 31.7052C16.9429 31.7052 16.8537 31.7721 16.6864 31.839C16.4635 31.9229 16.2178 31.9229 15.9949 31.839C15.658 31.6113 15.3875 31.2983 15.2112 30.9318C15.0348 30.5654 14.9589 30.1588 14.9911 29.7534C14.9877 29.2937 15.0908 28.8395 15.2923 28.4262C15.3497 28.2636 15.444 28.1166 15.5679 27.9966C15.6917 27.8766 15.8417 27.787 16.006 27.7348C16.1138 27.7107 16.2266 27.7254 16.3246 27.7764C16.4225 27.8275 16.4993 27.9114 16.5414 28.0136C16.6083 28.1586 16.5414 28.2589 16.6083 28.2701C16.6752 28.2812 16.7198 28.192 16.6864 27.969C16.6592 27.8348 16.5886 27.7134 16.4856 27.6232C16.3378 27.5144 16.1555 27.4629 15.9726 27.4782C15.7514 27.5138 15.5434 27.6066 15.3693 27.7475C15.1951 27.8883 15.0609 28.0724 14.98 28.2812C14.742 28.7352 14.6194 29.2408 14.6231 29.7534C14.5828 30.2252 14.6832 30.6983 14.9114 31.1131C15.1397 31.5279 15.4856 31.8659 15.9057 32.0844C16.0479 32.1319 16.1991 32.1465 16.3479 32.1272C16.4966 32.1079 16.639 32.0551 16.7645 31.9728C16.9429 31.8279 16.9429 31.7163 16.9429 31.7052Z" fill="#98BDFE"/>
<path d="M33.1042 36.7219C33.1042 36.5881 32.1116 36.2869 31.3644 35.3278C31.0561 34.8995 30.8015 34.435 30.606 33.9448C30.4499 33.5545 30.3272 33.3203 30.2714 33.3314C30.2157 33.3426 30.2714 33.6103 30.2714 34.0341C30.3877 34.5965 30.6277 35.1261 30.9741 35.5843C31.327 36.0447 31.8024 36.3964 32.3459 36.5992C32.8254 36.7665 33.1042 36.7665 33.1042 36.7219Z" fill="#98BDFE"/>
<path d="M10.8785 17.8845C11.9938 15.9885 12.1946 13.7468 12.7745 11.6501C13.3545 9.55334 14.492 7.36738 16.533 6.60899C17.4288 6.17447 18.4246 5.98772 19.417 6.06813C20.8018 6.18034 22.5182 5.49002 23.2944 4.33765C23.5169 4.00727 23.767 3.69433 24.043 3.40245C25.0042 2.38584 26.238 1.66762 27.5966 1.33369C30.8064 0.661676 34.139 0.881531 37.2327 1.9694C39.2402 2.7501 41.192 4.36726 43.5787 6.76513C44.1218 7.30832 44.64 7.8754 45.1318 8.46459C45.9678 9.46607 46.5459 10.6496 46.9642 11.8852L47.3973 13.165C48.2786 15.7684 48.0678 18.6177 46.813 21.0631C46.7237 21.2793 46.6239 21.491 46.5139 21.6975C46.4619 21.7951 46.4221 21.8988 46.399 22.0069C46.1325 23.2544 44.6037 23.1051 44.5896 21.8295C44.5791 20.8717 44.5659 19.9795 44.5468 19.2462C44.5272 18.4942 43.9129 17.9174 43.1666 17.8226C41.9817 17.6721 40.8229 17.3479 39.728 16.8586C38.2273 16.1877 36.8777 15.2203 35.7605 14.0145C34.556 12.7096 33.5969 11.0701 31.9909 10.3006C29.9307 9.31479 27.5625 10.067 25.3451 10.8421C25.3353 10.8456 25.328 10.8329 25.3359 10.8261C25.3441 10.8189 25.3355 10.8059 25.3256 10.8107C24.2913 11.3197 23.3574 12.0108 22.5687 12.8505C22.4742 12.9512 22.4319 13.0895 22.4483 13.2266C22.9558 17.4626 22.567 21.7589 21.3064 25.8365C21.1057 26.4611 20.5703 27.7436 19.968 27.989C18.7747 28.4686 18.4401 27.2529 17.7375 26.6172C16.615 25.858 15.1772 25.1861 14.8006 23.8844C14.5856 23.1413 14.389 22.3929 14.2111 21.6399C14.0809 21.0892 13.507 20.7688 12.9437 20.8222C12.6962 20.8456 12.4469 20.8496 12.1982 20.8341C11.9673 20.8196 11.8318 20.5792 11.9167 20.364C11.9497 20.2807 11.9825 20.1971 12.0152 20.1136C12.1217 19.8419 11.7424 19.5123 11.4585 19.5797C11.2845 19.6143 11.104 19.5956 10.9409 19.5259C10.618 19.3881 10.4483 19.0109 10.5267 18.6687C10.5895 18.3944 10.7423 18.1228 10.8785 17.8845Z" fill="url(#paint0_linear_1_3139)"/>
<path d="M23.8502 8.47138C23.9634 8.36827 24.0573 8.4967 23.9534 8.60913C23.9375 8.62633 23.9217 8.64361 23.906 8.66097C23.3189 9.41377 22.9348 10.3047 22.7907 11.2484C22.6694 11.8992 22.6133 12.5605 22.6234 13.2225C22.6234 13.9474 22.6903 14.7058 22.7572 15.4531C22.8439 16.2977 22.8737 17.1473 22.8465 17.9959C22.8275 18.449 22.7753 18.9 22.6903 19.3454C22.6317 19.8204 22.4469 20.271 22.155 20.6503C22.0243 20.8133 21.8505 20.9363 21.6533 21.0053C21.4561 21.0743 21.2435 21.0866 21.0397 21.0406C20.6577 20.9727 20.3088 20.7806 20.0471 20.4941C19.6309 19.9407 19.3652 19.2893 19.2752 18.6035C19.2702 18.565 19.3004 18.5312 19.3392 18.5312C19.3848 18.5312 19.4162 18.5769 19.3992 18.6192C19.1767 19.1756 18.8767 19.698 18.508 20.1707C18.1374 20.635 17.6022 20.9386 17.0135 21.0183C16.7386 21.0489 16.4606 21.0026 16.2105 20.8845C15.9776 20.7678 15.7837 20.5856 15.6529 20.3603C15.5387 20.148 15.4811 19.9099 15.4856 19.6688C15.4949 19.4629 15.5695 19.2658 15.6979 19.1056C15.7157 19.0835 15.7482 19.0814 15.7698 19.0999C15.7915 19.1185 15.7942 19.1512 15.7755 19.1729C15.3292 19.6925 14.7782 20.1124 14.1584 20.4049C13.9941 20.4857 13.8247 20.5558 13.6513 20.6148C13.6474 20.6161 13.6375 20.6168 13.6333 20.6168C13.5917 20.6168 13.5856 20.56 13.6237 20.5434L13.6342 20.5388C13.8056 20.474 13.9732 20.3996 14.1361 20.3157C14.7249 20.0023 15.2485 19.5797 15.679 19.0707C15.7015 19.0442 15.7414 19.0409 15.7676 19.0638C15.7912 19.0845 15.7954 19.1194 15.779 19.1462C15.6852 19.2999 15.6352 19.4769 15.6352 19.6577C15.6352 19.8569 15.6958 20.0514 15.809 20.2153C15.9228 20.4165 16.0935 20.5794 16.2997 20.6837C16.528 20.782 16.7775 20.8203 17.0247 20.7953C17.5731 20.7104 18.0702 20.424 18.4188 19.9923C18.7924 19.503 19.0929 18.962 19.311 18.3863C19.3368 18.3295 19.4225 18.3462 19.4225 18.4086C19.5009 19.0865 19.7546 19.7323 20.1586 20.2822C20.3969 20.5358 20.7092 20.7075 21.0509 20.773C21.22 20.8038 21.3942 20.7902 21.5564 20.7335C21.7187 20.6768 21.8635 20.579 21.9766 20.4495C22.2414 20.0887 22.4102 19.6666 22.4673 19.2227C22.5516 18.7885 22.6037 18.3486 22.6234 17.9067C22.6484 17.062 22.6224 16.2165 22.5454 15.375C22.5454 14.572 22.4226 13.8024 22.4226 13.0775C22.4227 12.407 22.49 11.7382 22.6234 11.0811C22.7913 10.1171 23.215 9.21577 23.8502 8.47138Z" fill="url(#paint1_linear_1_3139)"/>
<path d="M48.6969 15.1793C48.7113 15.1691 48.7302 15.1635 48.7126 15.1635C48.694 15.1635 48.6553 15.1696 48.6405 15.1809L48.4736 15.3085C48.3686 15.3889 48.2566 15.4598 48.1391 15.5204C47.9921 15.6218 47.8352 15.7077 47.6706 15.7769C46.6286 16.2738 45.4769 16.4965 44.3248 16.4238C42.6275 16.3312 40.9932 15.7503 39.6183 14.7508C37.962 13.5143 36.5734 11.955 35.5363 10.167C34.9564 9.23019 34.488 8.27104 33.9638 7.38997C33.489 6.53061 32.8958 5.7422 32.2016 5.04787C31.5785 4.42883 30.8124 3.97298 29.9711 3.72068C29.5854 3.62036 29.1869 3.579 28.7889 3.598C28.4094 3.62666 28.0349 3.70157 27.6736 3.82106C26.616 4.21121 25.7361 4.97216 25.1976 5.9624C25.0427 6.29594 24.9216 6.64409 24.8361 7.00164C24.8337 7.01167 24.8184 7.00994 24.8184 6.99962C24.8184 6.84389 24.8324 6.68802 24.8728 6.53762C24.9329 6.31379 25.0117 6.09525 25.1084 5.88433C25.3223 5.44196 25.6088 5.03858 25.9561 4.69098C26.4229 4.23035 26.9815 3.87314 27.5955 3.64261C27.9567 3.52089 28.3311 3.44228 28.7108 3.4084C29.1267 3.37941 29.5446 3.41706 29.9487 3.51993C30.8265 3.7732 31.6276 4.24078 32.2797 4.88058C33.0474 5.60359 33.7016 6.43829 34.2203 7.35651C34.7445 8.24874 35.224 9.20789 35.7928 10.1224C36.814 11.8954 38.1836 13.4433 39.819 14.6728C41.1649 15.6634 42.7682 16.2443 44.4363 16.3457C45.5591 16.4223 46.6838 16.2272 47.7152 15.7769C48.0564 15.6015 48.3845 15.4018 48.6969 15.1793Z" fill="url(#paint2_linear_1_3139)"/>
<path d="M43.2445 23.5391C43.0996 23.6952 42.1961 22.9814 40.8912 22.9703C39.5864 22.9591 38.6607 23.5948 38.4934 23.4387C38.3261 23.2826 38.5827 23.0707 38.9953 22.7695C39.5613 22.379 40.2374 22.1797 40.9247 22.2007C41.6024 22.2103 42.2591 22.4371 42.7984 22.8476C43.1441 23.171 43.3226 23.461 43.2445 23.5391Z" fill="#98BDFE"/>
<path d="M41.2571 26.9077C41.2514 27.0474 41.2179 27.1846 41.1584 27.3111C41.099 27.4377 41.0148 27.551 40.9109 27.6446C40.8069 27.7381 40.6854 27.8099 40.5533 27.8557C40.4212 27.9016 40.2813 27.9205 40.1418 27.9115C40.0072 27.9145 39.8733 27.8904 39.7482 27.8406C39.6231 27.7908 39.5093 27.7163 39.4136 27.6216C39.3178 27.5269 39.2421 27.4139 39.191 27.2894C39.1398 27.1648 39.1142 27.0312 39.1158 26.8966C39.1214 26.7569 39.1549 26.6197 39.2144 26.4932C39.2738 26.3666 39.358 26.2533 39.4619 26.1597C39.5658 26.0662 39.6874 25.9944 39.8195 25.9486C39.9516 25.9027 40.0915 25.8838 40.231 25.8928C40.3653 25.8913 40.4984 25.9165 40.6229 25.9668C40.7473 26.0172 40.8604 26.0917 40.9559 26.1861C41.0513 26.2805 41.1271 26.3929 41.1788 26.5167C41.2305 26.6406 41.2571 26.7735 41.2571 26.9077Z" fill="#98BDFE"/>
<path d="M45.1812 9.31257C45.4979 9.21148 45.8368 9.34492 46.0579 9.59315C46.2991 9.86389 46.5845 10.0937 46.903 10.2723C47.3233 10.5078 47.7894 10.6474 48.2681 10.6823C48.4125 10.6928 48.5575 10.6758 48.698 10.6405C49.2772 10.4947 49.8658 10.639 49.8525 11.2361C49.8435 11.6385 49.7481 12.0602 49.6011 12.2411C49.2497 12.6863 49.3367 13.3817 49.8994 13.4529C50.1316 13.4823 50.3629 13.4845 50.5953 13.4654C51.5452 13.3871 52.4377 14.0609 52.0486 14.9309C51.8612 15.3499 51.6305 15.7502 51.3591 16.1249C50.6808 17.0611 49.7716 17.8057 48.72 18.286C48.3888 18.4562 48.0218 18.545 47.6494 18.545C46.9102 18.545 46.2217 18.0841 45.8886 17.4242C45.761 17.1714 45.6732 16.8978 45.6307 16.613C45.0612 14.4553 44.7427 12.2397 44.6813 10.0101C44.6726 9.69213 44.8782 9.40927 45.1812 9.31257Z" fill="url(#paint3_linear_1_3139)"/>
<path d="M2.79242 54.3101C4.8148 52.7614 8.10215 52.0536 9.23869 51.8462C9.50652 51.7973 9.77367 51.7507 10.0403 51.6955C14.9944 50.6694 19.98 53.0021 24.725 54.7575C26.2019 55.3039 27.851 55.5913 29.5927 55.3473C34.4421 54.6678 40.5838 51.019 45.1328 52.8314C45.6421 53.0344 46.1592 53.2493 46.6796 53.4765C51.8117 55.7165 52.0443 62.3078 47.1123 64.9595C42.4484 67.467 37.1128 69.0163 30.7086 69.612C22.2164 70.6194 11.0941 66.804 2.84086 59.3416C-0.537605 56.2868 7.90857 63.9237 7.57318 58.2023C7.56531 58.068 7.64666 55.7284 7.66385 55.595C8.39584 49.9107 -0.943188 57.243 2.79242 54.3101Z" fill="url(#paint4_linear_1_3139)"/>
<defs>
<linearGradient id="paint0_linear_1_3139" x1="10.4973" y1="29.885" x2="61.2879" y2="24.6851" gradientUnits="userSpaceOnUse">
<stop stop-color="#92A3FD"/>
<stop offset="1" stop-color="#9DCEFF"/>
</linearGradient>
<linearGradient id="paint1_linear_1_3139" x1="13.4558" y1="21.0679" x2="28.4335" y2="20.0777" gradientUnits="userSpaceOnUse">
<stop stop-color="white"/>
<stop offset="1" stop-color="#9DCEFF"/>
</linearGradient>
<linearGradient id="paint2_linear_1_3139" x1="24.8184" y1="16.4372" x2="56.2316" y2="11.9814" gradientUnits="userSpaceOnUse">
<stop stop-color="white"/>
<stop offset="1" stop-color="#9DCEFF"/>
</linearGradient>
<linearGradient id="paint3_linear_1_3139" x1="44.6716" y1="18.545" x2="55.2436" y2="17.8562" gradientUnits="userSpaceOnUse">
<stop stop-color="#99BEFE"/>
<stop offset="1" stop-color="#9DCEFF"/>
</linearGradient>
<linearGradient id="paint4_linear_1_3139" x1="0.290826" y1="69.7712" x2="70.9262" y2="54.5055" gradientUnits="userSpaceOnUse">
<stop stop-color="#92A3FD"/>
<stop offset="1" stop-color="#9DCEFF"/>
</linearGradient>
</defs>
</svg>
