<svg width="73" height="80" viewBox="0 0 73 80" fill="none" xmlns="http://www.w3.org/2000/svg">
<path d="M52.1599 14.9502C53.8569 12.8472 54.5518 9.88375 52.8108 7.81702C51.879 6.71085 50.736 5.80151 49.4487 5.14214C46.5449 3.78975 43.2599 3.49435 40.1614 4.30698C37.1046 5.11745 34.2019 6.42481 31.5691 8.17682C30.0083 9.04202 28.6212 10.1889 27.4782 11.5595C25.2845 14.5112 23.9309 18.0018 23.5611 21.6608C23.6872 25.329 24.3758 28.9546 25.6015 32.4109C25.7781 32.9088 26.0051 33.3928 26.3478 33.7947C26.6054 34.0968 26.8929 34.3711 27.2056 34.6137C27.9512 35.192 28.6894 35.8104 29.1945 36.6073C29.4617 37.0288 29.7427 37.4409 30.037 37.8431C31.4212 39.734 34.1705 38.9883 34.8633 36.7496C34.985 36.3566 35.1799 35.9917 35.4382 35.6716L52.1599 14.9502Z" fill="url(#paint0_linear_1_3116)"/>
<path d="M53.6716 8.36664C53.4301 8.37875 53.1829 8.38104 52.9437 8.34547C50.8568 8.0351 49.1234 10.2198 49.6546 12.2617C50.332 14.8655 50.9056 17.8935 51.4269 20.9765C52.435 26.9395 60.4417 27.9421 59.8279 21.9258C59.4943 18.6556 59.4193 8.0783 53.6716 8.36664Z" fill="url(#paint1_linear_1_3116)"/>
<path d="M29.257 20.3344L29.2572 20.3344L29.2573 20.3285C29.2923 18.4625 29.9241 16.6569 31.0601 15.1762C32.1961 13.6955 33.7765 12.6177 35.5697 12.1007C35.5698 12.1007 35.5698 12.1007 35.5698 12.1007L47.3581 8.70641C49.8693 8.3657 52.0221 9.71498 53.6166 11.8071C55.2127 13.9011 56.2361 16.7244 56.4821 19.2812L56.4822 19.2813C57.0428 25.025 57.438 31.0251 56.9072 35.3156C56.3662 39.6123 54.4692 42.078 52.7138 43.4705C51.8351 44.1677 50.9903 44.597 50.3657 44.8519C50.0535 44.9794 49.7965 45.0632 49.6182 45.115C49.529 45.1409 49.4595 45.1588 49.4126 45.1701C49.3892 45.1758 49.3714 45.1798 49.3596 45.1824L49.3465 45.1853L49.3435 45.1859L49.3428 45.186L49.3427 45.186L49.2589 45.2028L49.2616 45.2883L49.3625 45.2851L49.2616 45.2883L49.2616 45.2885L49.2616 45.289L49.2617 45.2912L49.2619 45.3001L49.263 45.3348L49.2673 45.4689L49.2829 45.9665C49.2962 46.3891 49.3145 46.9786 49.3351 47.6463C49.3761 48.9783 49.4258 50.6215 49.4606 51.8719L47.5771 63.0083L31.8245 56.4233L29.2404 20.4414C29.243 20.4343 29.2446 20.4278 29.2458 20.4228C29.2475 20.4153 29.249 20.4072 29.2502 20.3989C29.2527 20.3824 29.2549 20.3612 29.257 20.3344Z" fill="white" stroke="#96B3FD" stroke-width="0.201982"/>
<path d="M54.0093 26.4672C54.0128 26.7518 53.9095 27.0274 53.7199 27.2397C53.5302 27.4519 53.268 27.5854 52.9848 27.6139C52.8454 27.6297 52.7043 27.6177 52.5696 27.5785C52.435 27.5394 52.3094 27.4738 52.2003 27.3857C52.0912 27.2977 52.0006 27.1888 51.9339 27.0654C51.8672 26.942 51.8256 26.8066 51.8117 26.6671C51.8077 26.3802 51.9122 26.1024 52.1042 25.8893C52.2962 25.6761 52.5616 25.5433 52.8473 25.5174C52.9863 25.5016 53.127 25.5138 53.2612 25.5532C53.3954 25.5927 53.5204 25.6586 53.6287 25.7471C53.737 25.8356 53.8265 25.945 53.8919 26.0686C53.9573 26.1923 53.9972 26.3278 54.0093 26.4672Z" fill="url(#paint2_linear_1_3116)"/>
<path d="M55.3968 22.6768C55.2584 22.82 54.4063 22.2351 53.2139 22.2717C52.0216 22.3083 51.187 22.9326 50.9999 22.806C50.8127 22.6794 51.0662 22.4818 51.437 22.1939C51.9417 21.8222 52.5484 21.6144 53.1751 21.5985C53.7927 21.5763 54.4012 21.7519 54.9122 22.0995C55.3334 22.352 55.473 22.6092 55.3968 22.6768Z" fill="url(#paint3_linear_1_3116)"/>
<path d="M43.3138 26.4456C43.3178 26.7324 43.2133 27.0102 43.0213 27.2234C42.8293 27.4365 42.5639 27.5693 42.2782 27.5952C42.1381 27.6115 41.9962 27.5993 41.861 27.5593C41.7258 27.5194 41.6 27.4526 41.4913 27.3628C41.3825 27.2731 41.2929 27.1624 41.228 27.0372C41.163 26.912 41.124 26.7751 41.1133 26.6345C41.1098 26.3498 41.213 26.0743 41.4027 25.862C41.5923 25.6497 41.8547 25.5162 42.1379 25.4878C42.278 25.4731 42.4197 25.4863 42.5547 25.5266C42.6898 25.5668 42.8155 25.6334 42.9248 25.7224C43.034 25.8114 43.1246 25.9211 43.1914 26.0452C43.2582 26.1693 43.2998 26.3054 43.3138 26.4456Z" fill="url(#paint4_linear_1_3116)"/>
<path d="M44.1281 23.0213C43.9896 23.1645 43.1375 22.5796 41.9452 22.6162C40.7528 22.6528 39.9073 23.2801 39.7459 23.2055C39.5844 23.1309 39.8122 22.8813 40.1829 22.5934C40.6874 22.2211 41.2942 22.0132 41.921 21.998C42.5364 21.9733 43.1437 22.1449 43.6551 22.488C44.0536 22.6995 44.1903 22.9457 44.1281 23.0213Z" fill="url(#paint5_linear_1_3116)"/>
<path d="M50.0384 32.1579C49.5995 32.2287 49.5537 31.8645 49.9965 31.8255C50.021 31.8234 50.0454 31.8192 50.0691 31.8128C50.1441 31.7926 50.2171 31.7726 50.2851 31.751C50.5827 31.6565 50.691 31.3347 50.6095 31.0333C50.5941 30.9764 50.5756 30.9203 50.5541 30.8653C50.4848 30.6877 50.3896 30.5209 50.3146 30.3456L49.4499 28.325C49.0605 27.4849 49.636 27.2624 49.963 28.1286C50.2803 28.9315 50.5914 29.6967 50.8964 30.4243C51.0282 30.669 51.0975 30.9405 51.1006 31.215C51.1031 31.4435 51.05 31.6839 50.885 31.842C50.802 31.9215 50.7015 31.9806 50.5917 32.0146C50.4286 32.0784 50.259 32.1239 50.0859 32.1501C50.0701 32.1528 50.0542 32.1554 50.0384 32.1579Z" fill="url(#paint6_linear_1_3116)"/>
<path d="M46.5501 45.2349C43.8135 44.9978 42.6259 46.9092 45.3434 47.3098C46.2816 47.4482 47.3215 47.4945 48.4704 47.4133C49.0113 47.3751 49.4126 46.9055 49.3968 46.3634C49.3797 45.7762 48.8853 45.3192 48.2979 45.3157C47.7134 45.3122 47.1303 45.2852 46.5501 45.2349Z" fill="url(#paint7_linear_1_3116)"/>
<path d="M42.8801 18.1463C43.504 18.3733 43.3532 18.9539 42.6911 19.0034C42.2147 19.039 41.5967 19.064 40.9365 19.1621C40.2614 19.2624 39.6506 19.4242 39.1784 19.526C38.5409 19.6635 38.2613 19.1279 38.7836 18.7372C39.3738 18.3242 40.0555 18.0607 40.77 17.9692C41.4776 17.8641 42.1999 17.9248 42.8801 18.1463Z" fill="url(#paint8_linear_1_3116)"/>
<path d="M54.8977 19.0516C54.7007 19.3283 53.8681 19.08 52.8825 19.0966C51.8969 19.1132 51.0751 19.3452 50.8826 19.0667C50.6901 18.7883 50.9144 18.6575 51.2661 18.3864C51.7555 18.0783 52.3267 17.9252 52.9046 17.9474C53.4803 17.9397 54.0443 18.1095 54.52 18.4339C54.8605 18.6491 54.9811 18.9232 54.8977 19.0516Z" fill="url(#paint9_linear_1_3116)"/>
<path d="M54.0127 11.4857C53.6901 10.8616 53.2001 10.3397 52.5974 9.97863C51.9947 9.61756 51.3034 9.43159 50.6009 9.44161C49.1943 9.48607 47.8293 9.92948 46.6652 10.7201C41.6089 13.8429 39.2202 21.0713 34.2594 24.2864C33.0327 25.0747 31.3871 24.4313 30.366 25.4592C29.8155 25.9409 29.4217 26.5764 29.2353 27.2837C29.1208 27.7184 28.2895 28.0411 28.0637 27.6524C27.8479 27.2809 27.6515 26.8979 27.4757 26.5048C27.2423 25.9744 27.1254 25.4001 27.1328 24.8207C27.1402 24.2413 27.2718 23.6703 27.5186 23.146C27.7675 22.6756 28.1476 22.267 28.45 21.8252C28.8287 21.2719 28.9047 20.5811 28.8675 19.9117C28.8189 19.0392 28.6979 18.145 28.9917 17.3221C29.1083 16.9955 29.2593 16.6809 29.4429 16.3838C31.2387 12.7483 33.992 9.67156 37.4065 7.48472C39.6742 6.0855 42.2833 5.33746 44.9478 5.32261C47.6031 5.30436 50.1774 6.23667 52.2052 7.95101C53.3768 8.98068 54.6013 10.0316 54.0596 11.4849" fill="url(#paint10_linear_1_3116)"/>
<path d="M26.0773 29.5684C26.0555 28.3905 26.321 27.613 26.7192 27.1077C27.1169 26.603 27.6566 26.3574 28.2082 26.2624C28.7611 26.1672 29.3217 26.2242 29.7492 26.3214C29.9627 26.37 30.1406 26.4281 30.2654 26.4806C30.3282 26.5071 30.3751 26.5311 30.4058 26.5505C30.4129 26.555 30.4187 26.5589 30.4232 26.5623L30.4243 26.5996L30.4305 26.8017L30.4525 27.5239C30.4706 28.1221 30.4946 28.9211 30.5183 29.7243C30.542 30.5275 30.5654 31.3348 30.582 31.9495C30.5904 32.2569 30.5971 32.516 30.6013 32.7024C30.6034 32.7956 30.6049 32.8704 30.6057 32.9238C30.6059 32.9385 30.6061 32.9515 30.6062 32.9628C30.5771 32.9748 30.5336 32.9896 30.4765 33.0057C30.3539 33.0402 30.1766 33.0782 29.9624 33.1056C29.5336 33.1605 28.9639 33.1724 28.3941 33.0352C27.8253 32.8983 27.2596 32.6138 26.83 32.078C26.4005 31.5422 26.0992 30.7451 26.0773 29.5684ZM30.4365 26.5736C30.4365 26.5736 30.4361 26.5732 30.4355 26.5724L30.4365 26.5736Z" fill="white" stroke="#96B4FE" stroke-width="0.201982"/>
<path d="M29.2411 31.2885C29.2411 31.2885 29.1531 31.3121 29.0279 31.4163C28.8354 31.4998 28.6185 31.5074 28.4207 31.4376C28.1166 31.2559 27.8671 30.9955 27.6985 30.6839C27.53 30.3723 27.4487 30.021 27.463 29.667C27.4406 29.2704 27.5076 28.8739 27.6589 28.5066C27.7006 28.3613 27.7766 28.2281 27.8805 28.1182C27.9844 28.0084 28.1131 27.925 28.2559 27.8752C28.3482 27.8461 28.4481 27.8517 28.5366 27.8909C28.6252 27.93 28.6965 28.0001 28.7372 28.0881C28.7725 28.22 28.7931 28.297 28.799 28.319C28.8049 28.341 28.909 28.2895 28.8552 28.0447C28.8248 27.9307 28.7605 27.8287 28.6708 27.7523C28.5389 27.6615 28.3771 27.6247 28.2189 27.6494C28.0293 27.692 27.8538 27.7823 27.709 27.9119C27.5643 28.0415 27.4551 28.2059 27.3918 28.3896C27.2064 28.7796 27.1152 29.2078 27.1256 29.6395C27.1098 30.0525 27.2178 30.4609 27.4358 30.812C27.6538 31.1631 27.9718 31.441 28.349 31.61C28.4729 31.6453 28.6033 31.6514 28.7299 31.6277C28.8565 31.604 28.9759 31.5512 29.0786 31.4735C29.2376 31.4073 29.2551 31.2965 29.2411 31.2885Z" fill="#87C1FB"/>
<path d="M28.8357 24.0074C28.7988 24.0379 28.8233 24.0741 28.8611 24.0445C28.8666 24.0402 28.872 24.0359 28.8775 24.0315C29.0577 23.9125 29.323 23.7589 29.6476 23.5187C30.5356 22.8237 31.348 22.0371 32.0714 21.1721C33.1281 19.8708 34.1093 18.51 35.0102 17.0963C36.0957 15.3696 37.3266 13.7386 38.6893 12.2211C39.4175 11.4641 40.2234 10.7859 41.0937 10.1979C41.9173 9.66367 42.8031 9.23235 43.7315 8.91354C45.2975 8.34983 46.9574 8.09314 48.6205 8.1575C49.7408 8.19037 50.8518 8.37225 51.9241 8.6984C52.3071 8.80794 52.5991 8.93007 52.7935 8.99584C52.9613 9.05262 52.9727 9.01863 52.8066 8.95695C52.6093 8.88019 52.3363 8.74118 51.9504 8.62064C50.8759 8.26314 49.7574 8.05522 48.6262 8.00275C46.9392 7.92785 45.2531 8.17169 43.6565 8.7215C42.7179 9.04715 41.8221 9.48503 40.9887 10.0256C40.0888 10.6164 39.2575 11.3056 38.5102 12.0805C37.1474 13.6145 35.9169 15.2611 34.8318 17.0027C33.9396 18.4105 32.9743 19.7706 31.94 21.0776C31.2286 21.9445 30.4356 22.7411 29.572 23.4565C29.2614 23.7047 29.002 23.8803 28.8357 24.0074Z" fill="url(#paint11_linear_1_3116)"/>
<path d="M30.3074 24.9036C29.9815 25.2788 29.7658 25.7445 29.764 26.2415C29.7602 27.2545 29.968 28.26 30.3774 29.1927C30.6563 29.7627 31.1456 30.2021 31.7423 30.4182C32.3389 30.6344 32.9961 30.6104 33.5754 30.3512C34.4555 29.809 34.6873 28.6508 34.8226 27.6599C34.8566 27.3962 34.8882 27.132 34.9175 26.8672C35.1847 24.461 31.8953 23.076 30.3074 24.9036Z" fill="url(#paint12_linear_1_3116)"/>
<path d="M52.492 9.24167C52.5257 9.24539 52.5196 9.28101 52.4858 9.27851C52.2846 9.26365 51.9907 9.25004 51.6113 9.25372C50.5644 9.27194 49.5309 9.49282 48.568 9.90417C47.9031 10.1932 47.2672 10.5451 46.6692 10.9551C45.9962 11.4458 45.3505 11.973 44.735 12.5341C43.3198 13.813 42.0603 15.2542 40.9826 16.8279C40.4197 17.6741 39.9316 18.5356 39.3818 19.343C38.878 20.1273 38.2788 20.8461 37.5979 21.4828C36.431 22.5384 35.1463 23.456 33.7694 24.2176C32.6042 24.8834 31.6236 25.3583 30.9552 25.6788L30.1743 26.0402C30.1706 26.0419 30.1668 26.0433 30.1628 26.0444C30.0908 26.0637 30.0561 25.9916 30.1246 25.9619C30.1278 25.9605 30.131 25.9591 30.1342 25.9578L30.8978 25.5528C31.5574 25.1993 32.5212 24.7053 33.6724 24.0314C35.0252 23.2643 36.2905 22.3523 37.4459 21.3114C38.1248 20.6761 38.7247 19.9613 39.2327 19.1826C39.7634 18.3921 40.2515 17.5306 40.8225 16.6704C41.9104 15.0748 43.191 13.6193 44.6351 12.337C45.2507 11.7781 45.8974 11.2546 46.5722 10.769C47.1851 10.3575 47.838 10.0088 48.5209 9.72823C49.5097 9.31964 50.5732 9.12301 51.6427 9.15102C51.9278 9.1586 52.2118 9.18892 52.492 9.24167Z" fill="url(#paint13_linear_1_3116)"/>
<path d="M29.5485 22.6258C29.429 22.7437 29.293 22.8436 29.1448 22.9226L27.9943 23.6434L27.6118 23.8873C27.4484 23.9618 27.2737 24.0087 27.095 24.0258C26.9859 24.0353 26.8766 24.0111 26.7817 23.9565C26.7278 23.9254 26.6825 23.8814 26.6498 23.8284C26.6171 23.7755 26.5981 23.7152 26.5944 23.6531C26.5991 23.4404 26.6721 23.2349 26.8027 23.0669L28.0936 20.847L28.2786 21.0096C27.8434 21.3589 27.3468 21.6238 26.8144 21.7909C26.2815 21.967 25.7229 22.053 25.1617 22.0452C25.0199 22.0444 24.879 22.0225 24.7437 21.9804C24.6627 21.9614 24.587 21.9247 24.5221 21.8727C24.4572 21.8208 24.4048 21.755 24.3686 21.6802C24.3404 21.6033 24.3315 21.5208 24.3427 21.4397C24.3538 21.3586 24.3847 21.2815 24.4325 21.2152C24.5107 21.1065 24.5977 21.0043 24.6925 20.9098C25.2807 20.2975 25.7906 19.6146 26.2103 18.8766C26.5775 18.1771 26.8911 17.4509 27.1485 16.7041C27.1347 16.9201 27.0928 17.1334 27.0239 17.3386C26.861 17.8997 26.6436 18.4435 26.3747 18.9622C25.9709 19.7322 25.4635 20.4432 24.8665 21.0753C24.701 21.2493 24.5274 21.4372 24.6016 21.5824C24.6759 21.7275 24.9282 21.7895 25.1739 21.7826C25.7046 21.7935 26.2335 21.7156 26.7385 21.5519C27.238 21.3847 27.7047 21.132 28.1178 20.8052L28.6658 20.3873L28.3168 20.9758L26.9869 23.1826C26.8842 23.3125 26.8199 23.4685 26.8012 23.6331C26.8047 23.6649 26.8149 23.6957 26.8312 23.7233C26.8474 23.751 26.8693 23.7749 26.8954 23.7935C26.9216 23.8121 26.9513 23.8249 26.9828 23.8312C27.0142 23.8375 27.0466 23.8371 27.0779 23.83C27.3703 23.7535 27.6475 23.6275 27.8973 23.4572L29.0875 22.7965C29.2364 22.7276 29.3906 22.6705 29.5485 22.6258Z" fill="white"/>
<path d="M46.6814 36.068C47.2513 36.0739 47.2022 35.7558 46.6582 35.5857C46.2582 35.4607 45.7678 35.2404 45.3261 34.7929C44.3878 33.8422 44.4295 32.5463 44.2528 32.5465C44.076 32.5467 44.0398 32.8511 44.0793 33.3945C44.1246 34.0973 44.4153 34.7619 44.9007 35.2723C45.3682 35.7589 46.0069 36.0444 46.6814 36.068Z" fill="url(#paint14_linear_1_3116)"/>
<path d="M64.0549 54.631C62.1927 53.3222 60.1561 52.281 58.0048 51.5377L55.0234 50.924C51.8029 50.261 48.6546 52.267 45.8361 53.9603C44.211 54.9366 42.3218 55.3814 40.4318 55.2328C38.5251 55.1051 36.6781 54.5152 35.0504 53.5139C32.1171 51.7094 28.8504 49.8265 25.5347 50.7573C24.6868 50.9953 23.7786 51.2704 22.8376 51.5853C16.0823 53.8464 15.1629 62.5407 21.1674 66.3736C25.1015 68.8848 30.1529 70.6984 38.3646 71.5786C39.2859 71.6773 39.7466 71.7267 40.4263 71.7333C41.106 71.74 41.5715 71.6992 42.5025 71.6178C54.5545 70.5632 59.7496 67.511 64.1834 63.5431C66.8711 61.1378 66.8837 56.8686 64.0549 54.631Z" fill="url(#paint15_linear_1_3116)"/>
<defs>
<linearGradient id="paint0_linear_1_3116" x1="60.9132" y1="34.1166" x2="16.5297" y2="42.4428" gradientUnits="userSpaceOnUse">
<stop stop-color="#92A3FD"/>
<stop offset="1" stop-color="#9DCEFF"/>
</linearGradient>
<linearGradient id="paint1_linear_1_3116" x1="64.1796" y1="33.9601" x2="50.6957" y2="37.1851" gradientUnits="userSpaceOnUse">
<stop stop-color="#92A3FD"/>
<stop offset="1" stop-color="#9DCEFF"/>
</linearGradient>
<linearGradient id="paint2_linear_1_3116" x1="54.2466" y1="27.2911" x2="51.3487" y2="27.8198" gradientUnits="userSpaceOnUse">
<stop stop-color="#92A3FD"/>
<stop offset="1" stop-color="#9DCEFF"/>
</linearGradient>
<linearGradient id="paint3_linear_1_3116" x1="55.4347" y1="22.6761" x2="49.7176" y2="23.0614" gradientUnits="userSpaceOnUse">
<stop stop-color="#92A3FD"/>
<stop offset="1" stop-color="#9DCEFF"/>
</linearGradient>
<linearGradient id="paint4_linear_1_3116" x1="43.5497" y1="27.2718" x2="40.6491" y2="27.802" gradientUnits="userSpaceOnUse">
<stop stop-color="#92A3FD"/>
<stop offset="1" stop-color="#9DCEFF"/>
</linearGradient>
<linearGradient id="paint5_linear_1_3116" x1="44.1597" y1="23.0224" x2="38.461" y2="23.3721" gradientUnits="userSpaceOnUse">
<stop stop-color="#92A3FD"/>
<stop offset="1" stop-color="#9DCEFF"/>
</linearGradient>
<linearGradient id="paint6_linear_1_3116" x1="51.3216" y1="31.8341" x2="47.1536" y2="32.8432" gradientUnits="userSpaceOnUse">
<stop stop-color="#92A3FD"/>
<stop offset="1" stop-color="#9DCEFF"/>
</linearGradient>
<linearGradient id="paint7_linear_1_3116" x1="49.8755" y1="47.1982" x2="36.1706" y2="49.3515" gradientUnits="userSpaceOnUse">
<stop stop-color="#92A3FD"/>
<stop offset="1" stop-color="#9DCEFF"/>
</linearGradient>
<linearGradient id="paint8_linear_1_3116" x1="43.6641" y1="18.8323" x2="36.6307" y2="18.8956" gradientUnits="userSpaceOnUse">
<stop stop-color="#92A3FD"/>
<stop offset="1" stop-color="#9DCEFF"/>
</linearGradient>
<linearGradient id="paint9_linear_1_3116" x1="54.9686" y1="19.0914" x2="49.7482" y2="19.5614" gradientUnits="userSpaceOnUse">
<stop stop-color="#92A3FD"/>
<stop offset="1" stop-color="#9DCEFF"/>
</linearGradient>
<linearGradient id="paint10_linear_1_3116" x1="57.2467" y1="21.9456" x2="17.7378" y2="27.7005" gradientUnits="userSpaceOnUse">
<stop stop-color="#92A3FD"/>
<stop offset="1" stop-color="#9DCEFF"/>
</linearGradient>
<linearGradient id="paint11_linear_1_3116" x1="55.2378" y1="17.0626" x2="19.0278" y2="19.6626" gradientUnits="userSpaceOnUse">
<stop stop-color="#92A3FD"/>
<stop offset="1" stop-color="#9DCEFF"/>
</linearGradient>
<linearGradient id="paint12_linear_1_3116" x1="38.4219" y1="29.0845" x2="28.0916" y2="31.2308" gradientUnits="userSpaceOnUse">
<stop stop-color="#92A3FD"/>
<stop offset="1" stop-color="#9DCEFF"/>
</linearGradient>
<linearGradient id="paint13_linear_1_3116" x1="55.4719" y1="19.2628" x2="20.6542" y2="22.0103" gradientUnits="userSpaceOnUse">
<stop stop-color="#92A3FD"/>
<stop offset="1" stop-color="#9DCEFF"/>
</linearGradient>
<linearGradient id="paint14_linear_1_3116" x1="47.4923" y1="35.9273" x2="43.9576" y2="36.6844" gradientUnits="userSpaceOnUse">
<stop stop-color="#92A3FD"/>
<stop offset="1" stop-color="#9DCEFF"/>
</linearGradient>
<linearGradient id="paint15_linear_1_3116" x1="70.5274" y1="65.1072" x2="-2.09666" y2="72.0989" gradientUnits="userSpaceOnUse">
<stop stop-color="#92A3FD"/>
<stop offset="1" stop-color="#9DCEFF"/>
</linearGradient>
</defs>
</svg>
