<svg width="55" height="67" viewBox="0 0 55 67" fill="none" xmlns="http://www.w3.org/2000/svg">
<path d="M12.5157 24.0911C12.7363 20.355 12.4091 16.5885 12.8124 12.8676C13.2157 9.14675 14.4788 5.32696 17.2714 2.83878C20.0639 0.350593 24.6598 -0.357057 27.5513 2.01699L27.9546 5.24327C25.7327 19.5586 23.5159 33.8713 21.3042 48.1816C21.1299 50.0821 20.5926 51.9316 19.7215 53.6297C18.7399 55.2581 16.9137 56.5364 15.0267 56.2853C12.5613 55.9581 11.1156 53.3254 10.5069 50.9133C8.32304 42.1476 11.983 33.1003 12.5157 24.0911Z" fill="#98BDFE"/>
<path d="M22.8644 5.36505C23.4284 4.4499 24.1319 3.62838 24.9493 2.93013C25.3642 2.57831 25.8546 2.32668 26.3823 2.19474C26.9101 2.06279 27.4612 2.05406 27.9929 2.16922C28.2411 2.21601 28.4731 2.32602 28.6664 2.48864C28.8597 2.65125 29.0077 2.86096 29.0963 3.09752C29.2332 3.59211 28.8299 4.20085 28.3353 4.12476L28.2212 4.20846C27.0342 5.11394 25.8319 6.00422 24.6068 6.86405C24.3137 7.10496 23.9745 7.28361 23.6101 7.38908C23.4281 7.43956 23.2358 7.43854 23.0544 7.38614C22.873 7.33375 22.7098 7.23203 22.5828 7.09231C22.1567 6.5825 22.5144 5.88247 22.8644 5.36505Z" fill="#98BDFE"/>
<path d="M20.4969 8.88086C22.3869 6.77709 24.7255 5.12485 27.3398 4.0462C29.9541 2.96755 32.7774 2.49004 35.601 2.64898C38.9262 2.8316 40.2426 3.61533 42.5862 4.42951C44.9367 5.17319 46.9513 6.7191 48.2778 8.79716C49.8975 11.2632 50.8708 14.0971 51.1084 17.0378C51.3218 20.056 51.253 23.0874 50.903 26.0927C50.5489 29.1144 49.3666 31.9795 47.4865 34.3714L39.7404 35.1324C35.5021 34.9726 31.2029 34.8128 27.1549 33.5573C23.1068 32.3018 19.2566 29.7984 17.3087 26.0394C14.6303 20.8424 16.4488 13.1648 20.4969 8.88086Z" fill="#98BDFE"/>
<path d="M38.6693 48.8637L38.6417 48.8142L38.6446 48.7576C38.7131 47.4113 38.7834 45.89 38.8367 44.7097C38.8633 44.1196 38.8857 43.6149 38.9014 43.26L38.9196 42.8481L38.9245 42.7412L38.9257 42.7146L38.9262 42.7061L38.9265 42.7026L38.9268 42.6989L38.928 42.6894C38.9292 42.6819 38.9463 42.6306 38.9716 42.5917C39.1623 42.5247 39.3166 42.6794 39.3195 42.6985C39.3198 42.7024 39.3202 42.7076 39.3204 42.711C39.3173 42.6221 39.2587 42.5731 39.239 42.5588C39.2154 42.5418 39.1939 42.5344 39.1866 42.532C39.1695 42.5263 39.156 42.5246 39.154 42.5243C39.1466 42.5233 39.1429 42.5234 39.1467 42.5235C39.1523 42.5237 39.1651 42.5236 39.1862 42.5228C39.2274 42.521 39.2915 42.5165 39.3762 42.507C39.5453 42.4882 39.7925 42.4506 40.0977 42.3799C40.7083 42.2386 41.5481 41.9661 42.4587 41.4509C44.2753 40.4232 46.3866 38.423 47.5168 34.537C48.6436 30.6421 49.2745 24.0811 49.6095 18.6765L49.6095 18.6764C49.7586 16.298 48.9331 13.3999 47.3265 11.0463C45.721 8.69429 43.354 6.91107 40.4337 6.71095L40.4222 6.71017L40.4109 6.70806L37.8117 6.22257L27.3659 9.54036L27.3349 9.5502L27.3024 9.54958C26.6384 9.53695 25.9937 9.77358 25.4955 10.2128C24.9978 10.6515 24.6824 11.2605 24.6112 11.92L21.7473 47.0162L27.3895 58.1815L39.3949 50.1656L38.6693 48.8637Z" fill="white" stroke="#98BDFE" stroke-width="0.394588"/>
<path d="M35.8384 31.8675C35.9303 31.4636 36.1655 31.1068 36.5004 30.863C36.8053 30.6304 37.1783 30.5044 37.5619 30.5044C37.9454 30.5044 38.3184 30.6304 38.6234 30.863C38.9402 31.1343 39.1781 31.4859 39.312 31.8809C39.4459 32.2759 39.4708 32.6997 39.3843 33.1077C39.1903 33.3405 38.9487 33.5289 38.6756 33.6602C38.4025 33.7915 38.1045 33.8626 37.8016 33.8687C37.7079 33.8762 37.6137 33.8762 37.52 33.8687C37.0434 33.838 36.5967 33.6255 36.2721 33.2751C36.0992 33.0879 35.9704 32.8642 35.8953 32.6206C35.8203 32.3769 35.8008 32.1196 35.8384 31.8675Z" fill="#98BDFE"/>
<path d="M46.1479 24.6996C46.1173 24.969 45.9821 25.2155 45.7715 25.3863C45.5609 25.557 45.2917 25.6383 45.0218 25.6127C44.8898 25.6069 44.7603 25.5748 44.641 25.5181C44.5216 25.4615 44.4148 25.3815 44.3269 25.2829C44.2389 25.1843 44.1716 25.0691 44.1289 24.9441C44.0862 24.8191 44.069 24.6868 44.0783 24.555C44.109 24.2851 44.2439 24.0377 44.4542 23.8658C44.6646 23.6938 44.9337 23.6107 45.2044 23.6343C45.3367 23.6411 45.4664 23.6741 45.5858 23.7316C45.7052 23.789 45.8119 23.8697 45.8998 23.9689C45.9877 24.0681 46.0549 24.1838 46.0975 24.3092C46.1401 24.4347 46.1572 24.5674 46.1479 24.6996Z" fill="#98BDFE"/>
<path d="M47.7903 21.2611C47.6458 21.3828 46.9381 20.7056 45.8272 20.5686C44.7162 20.4317 43.8336 20.8806 43.727 20.7284C43.6205 20.5763 43.8412 20.4393 44.2293 20.2262C44.7503 19.9534 45.3434 19.8497 45.9261 19.9295C46.4967 19.9994 47.03 20.25 47.4479 20.6447C47.7751 20.9491 47.8588 21.2078 47.7903 21.2611Z" fill="#98BDFE"/>
<path d="M40.0145 29.4934C40.6212 29.3789 41.2405 29.3457 41.8559 29.3945C42.1451 29.3945 42.419 29.3945 42.4875 29.189C42.5523 28.899 42.5258 28.5959 42.4114 28.3216C42.2288 27.6063 42.0385 26.8454 41.8407 26.0389C41.0798 22.8202 40.5396 20.1874 40.6689 20.157C40.7983 20.1266 41.5363 22.7137 42.3125 25.9323C42.4951 26.6932 42.6701 27.4542 42.8451 28.2151C42.9745 28.5819 42.9745 28.982 42.8451 29.3488C42.7923 29.4443 42.7181 29.5263 42.6283 29.5883C42.5386 29.6503 42.4357 29.6908 42.3277 29.7065C42.1662 29.7293 42.0022 29.7293 41.8407 29.7065C41.2254 29.7125 40.6118 29.641 40.0145 29.4934Z" fill="#98BDFE"/>
<path d="M39.1267 42.718C35.335 42.2967 31.7343 40.8323 28.725 38.4873C28.725 38.4873 30.886 44.4224 39.0278 44.6811L39.1267 42.718Z" fill="#98BDFE"/>
<path d="M36.6509 29.8434C36.8335 29.8434 36.6509 31.0608 37.6097 32.05C38.5684 33.0392 39.8315 33.062 39.8163 33.2294C39.8011 33.3968 39.5043 33.4273 38.9565 33.374C38.2517 33.292 37.5976 32.9663 37.1074 32.4533C36.6262 31.9634 36.3535 31.3062 36.3465 30.6195C36.3998 30.1097 36.5672 29.8281 36.6509 29.8434Z" fill="#98BDFE"/>
<path d="M33.4944 23.5356C33.4739 23.7969 33.5526 24.0563 33.7147 24.2621C33.8769 24.468 34.1106 24.6052 34.3694 24.6465C34.5004 24.667 34.6341 24.6614 34.7629 24.63C34.8917 24.5986 35.013 24.542 35.1198 24.4635C35.2266 24.385 35.3168 24.2861 35.3853 24.1726C35.4537 24.059 35.4989 23.933 35.5184 23.8019C35.5443 23.5323 35.4643 23.2633 35.2953 23.0516C35.1263 22.84 34.8816 22.7025 34.6129 22.6681C34.3497 22.6358 34.0844 22.7089 33.8749 22.8714C33.6653 23.0339 33.5285 23.2726 33.4944 23.5356Z" fill="#98BDFE"/>
<path d="M32.7495 19.7619C32.8636 19.9141 33.7006 19.3967 34.8116 19.5032C35.9225 19.6098 36.691 20.2641 36.828 20.1043C36.9649 19.9446 36.7823 19.7924 36.4475 19.5032C35.9961 19.125 35.437 18.8986 34.8496 18.8564C34.2711 18.8017 33.6902 18.9322 33.1908 19.2293C32.8484 19.4652 32.6886 19.7011 32.7495 19.7619Z" fill="#98BDFE"/>
<path d="M24.6534 25.4981C24.4174 27.3853 23.7932 30.6748 23.6657 31.3356C23.6388 31.3397 23.6059 31.3438 23.5673 31.3475C23.4221 31.3613 23.2115 31.3681 22.9587 31.3554C22.4524 31.3298 21.7907 31.2264 21.1554 30.9555C20.5215 30.6852 19.9204 30.2512 19.5187 29.566C19.1174 28.8816 18.9031 27.926 19.0793 26.5899L24.6534 25.4981ZM24.6534 25.4981C24.6669 25.378 24.6523 25.1956 24.607 24.9769C24.5623 24.761 24.4904 24.5229 24.3991 24.2971C24.3075 24.0705 24.1989 23.8628 24.0832 23.7041C23.9643 23.5411 23.8558 23.4545 23.7718 23.4273C23.0264 23.2077 21.9761 23.0529 21.0583 23.4155C20.1608 23.7702 19.3387 24.6411 19.0793 26.5897L24.6534 25.4981Z" fill="white" stroke="#98BDFE" stroke-width="0.394588"/>
<path d="M22.589 29.3108C22.589 29.3108 22.4825 29.364 22.3151 29.4173C22.0746 29.4795 21.8195 29.4496 21.5998 29.3336C21.2735 29.0598 21.0261 28.7039 20.883 28.3027C20.7399 27.9015 20.7063 27.4694 20.7857 27.0508C20.8339 26.579 20.9873 26.124 21.2346 25.7192C21.3088 25.555 21.4216 25.4111 21.5633 25.2998C21.7051 25.1885 21.8716 25.1131 22.0488 25.0801C22.1626 25.0654 22.278 25.0908 22.3752 25.1519C22.4723 25.213 22.5453 25.3059 22.5814 25.4149C22.6347 25.5823 22.5814 25.6812 22.5814 25.6964C22.5814 25.7116 22.7108 25.6203 22.6955 25.392C22.685 25.252 22.6258 25.1201 22.5282 25.0192C22.3909 24.8868 22.209 24.8108 22.0184 24.8062C21.7879 24.822 21.5651 24.8959 21.3709 25.021C21.1767 25.146 21.0172 25.3182 20.9074 25.5214C20.6138 25.9663 20.4311 26.4751 20.3748 27.0052C20.2606 28.1161 20.6944 29.2194 21.4553 29.5542C21.5942 29.621 21.7463 29.6557 21.9004 29.6557C22.0545 29.6557 22.2067 29.621 22.3455 29.5542C22.5662 29.4401 22.6119 29.3184 22.589 29.3108Z" fill="#98BDFE"/>
<path d="M23.603 23.2612L24.8966 24.7831C31.3415 19.4567 44.1553 5.8059 43.44 6.62008C40.7586 5.40551 37.8155 4.8823 34.8797 5.09825C30.3143 5.54719 21.6703 7.19077 21.4268 12.4867C21.1833 17.7827 23.603 23.2612 23.603 23.2612Z" fill="#98BDFE"/>
<path d="M15.6955 21.4817C15.7155 21.373 15.7514 21.2679 15.802 21.1697C15.9209 20.8757 16.066 20.593 16.2357 20.3251C16.8733 19.3449 17.7205 18.5184 18.7163 17.9054C20.1898 16.9995 21.8091 16.3559 23.5024 16.0031C25.3895 15.5314 27.4972 15.2422 29.5897 14.4813C31.5707 13.818 33.468 12.9268 35.2433 11.8257C36.69 10.9227 38.0525 9.89131 39.3142 8.74402C40.1597 7.96364 40.9624 7.13812 41.7187 6.27105L42.3198 5.54817C42.3915 5.46295 42.4677 5.38167 42.5481 5.30469C42.5005 5.40651 42.4391 5.50126 42.3655 5.58622C42.2437 5.75362 42.0611 6.01994 41.8024 6.34713C41.0779 7.2496 40.2923 8.10129 39.4512 8.8962C36.6562 11.5324 33.323 13.5313 29.6811 14.7552C27.68 15.3687 25.6481 15.8767 23.5938 16.2771C21.9229 16.6135 20.3204 17.2283 18.8533 18.0956C17.8736 18.6774 17.0241 19.4544 16.3575 20.3784C15.8781 21.0632 15.7183 21.4893 15.6955 21.4817Z" fill="white"/>
<path d="M17.2346 22.4549C17.2493 22.0428 17.3504 21.6384 17.5314 21.2679C18.0318 20.2444 18.8267 19.3938 19.8141 18.8254C21.2735 18.0261 22.8771 17.5243 24.5318 17.3492C26.5207 17.1007 28.4756 16.6311 30.3603 15.9491C33.7817 14.6614 36.8707 12.6229 39.4 9.98354C40.1657 9.18724 40.8775 8.34074 41.5305 7.4497L42.0556 6.68879C42.1773 6.52139 42.2382 6.43769 42.2534 6.4453C42.2134 6.54216 42.1623 6.63408 42.1012 6.71923L41.6219 7.48014C40.9927 8.3962 40.2984 9.26588 39.5446 10.0825C37.0298 12.7894 33.9193 14.8736 30.4593 16.1698C28.5573 16.864 26.5807 17.3339 24.5698 17.5698C22.9443 17.7272 21.3651 18.2002 19.9206 18.9623C18.9561 19.488 18.1636 20.2806 17.6379 21.2451C17.4671 21.6353 17.3321 22.0402 17.2346 22.4549Z" fill="white"/>
<path d="M23.1227 32.5831C23.1227 32.545 22.6662 32.4537 21.8673 32.1798C20.748 31.7661 19.7363 31.1055 18.9073 30.2471C17.7074 28.9491 16.8337 27.3841 16.3583 25.6816C15.7453 23.5963 15.4881 21.4227 15.5974 19.2519C15.6529 18.132 15.8211 17.0205 16.0995 15.9343C16.8489 13.2025 18.3333 10.7285 20.3911 8.78173C21.6007 7.67326 22.9128 6.68217 24.3098 5.82178C24.1984 5.85507 24.0911 5.90103 23.9902 5.95875C23.7924 6.06528 23.488 6.20224 23.1227 6.43051C22.0755 7.04552 21.0984 7.77268 20.2085 8.59912C18.8756 9.8207 17.7658 11.2652 16.9289 12.8678C16.4415 13.8187 16.049 14.8152 15.7571 15.843C15.4619 16.9521 15.2884 18.09 15.2397 19.2367C15.1108 21.4456 15.3683 23.6601 16.0006 25.7805C16.5029 27.5286 17.4251 29.1272 18.6867 30.4373C19.551 31.3095 20.6135 31.9596 21.7836 32.332C22.0974 32.4286 22.4178 32.5023 22.7423 32.5527C22.8659 32.5874 22.9952 32.5977 23.1227 32.5831Z" fill="white"/>
<path d="M5.94897 48.5088C8.58933 46.987 12.9037 46.987 12.9037 46.987L21.327 46.4087C21.327 46.4087 25.474 53.0971 31.7591 53.0743C38.0443 53.0515 39.0258 48.8969 39.0258 48.8969C39.0258 48.8969 49.2061 50.875 54.8064 57.7156C47.669 62.8442 39.5811 67.06 29.2251 66.611C19.98 66.4893 8.07897 61.746 0.979649 53.1401C2.17474 51.4349 4.15536 49.5666 5.94897 48.5088Z" fill="#98BDFE"/>
</svg>
