<svg width="88" height="16" viewBox="0 0 88 16" fill="none" xmlns="http://www.w3.org/2000/svg">
<path d="M7.72044 4.06654C7.26564 4.06654 6.85955 4.16211 6.50217 4.35378C6.14484 4.53843 5.83946 4.80947 5.58606 5.16689C5.33266 5.52377 5.13774 5.9611 5.0013 6.47726C4.87135 6.98748 4.80638 7.56789 4.80638 8.21849C4.80638 9.09855 4.92008 9.83876 5.14749 10.4381C5.3749 11.0374 5.71926 11.4904 6.18057 11.7965C6.6484 12.1026 7.23315 12.2554 7.93489 12.2554C8.5716 12.2554 9.18235 12.1696 9.76711 11.9973C10.3583 11.8251 10.9529 11.6178 11.5506 11.3754V14.5706C10.9203 14.8449 10.2739 15.043 9.6112 15.1639C8.95493 15.2849 8.25649 15.3459 7.51577 15.3459C5.96942 15.3459 4.70242 15.0457 3.71482 14.4464C2.73372 13.8406 2.00927 13.0021 1.54146 11.9304C1.08014 10.8592 0.849487 9.61524 0.849487 8.19959C0.849487 7.14081 0.998927 6.17113 1.29781 5.29107C1.60318 4.41101 2.04825 3.64919 2.63301 3.00507C3.21778 2.35447 3.93898 1.85343 4.79663 1.50303C5.66078 1.14561 6.6484 0.966897 7.75942 0.966897C8.44813 0.966897 9.17262 1.0468 9.9328 1.20608C10.6995 1.35941 11.4467 1.60831 12.1743 1.95224L10.9951 4.92771C10.4753 4.68529 9.94902 4.4812 9.41627 4.31544C8.88346 4.14969 8.31822 4.06654 7.72044 4.06654ZM27.5677 8.14235C27.5677 9.22002 27.4345 10.2021 27.1681 11.0887C26.9081 11.9687 26.4989 12.7278 25.9401 13.3655C25.3813 14.0031 24.6633 14.4944 23.7862 14.8389C22.909 15.1769 21.8598 15.3459 20.6382 15.3459C19.4427 15.3459 18.4064 15.1769 17.5292 14.8389C16.6586 14.4944 15.9406 14.0064 15.3753 13.3752C14.8101 12.737 14.391 11.9752 14.1181 11.0887C13.8453 10.2021 13.7088 9.21355 13.7088 8.12292C13.7088 6.66893 13.9525 5.40607 14.4397 4.33434C14.9336 3.25667 15.6937 2.42466 16.7203 1.83778C17.7469 1.24441 19.0594 0.947998 20.6578 0.947998C22.2821 0.947998 23.601 1.24441 24.6146 1.83778C25.6347 2.4306 26.3819 3.26639 26.8562 4.34406C27.3305 5.42173 27.5677 6.68782 27.5677 8.14235ZM17.7631 8.14235C17.7631 8.98408 17.8606 9.70757 18.0555 10.3139C18.2505 10.9197 18.5591 11.3851 18.9814 11.7107C19.4037 12.0357 19.956 12.1982 20.6382 12.1982C21.3464 12.1982 21.9085 12.0357 22.3243 11.7107C22.7466 11.3851 23.0487 10.9197 23.2307 10.3139C23.4191 9.70757 23.5133 8.98408 23.5133 8.14235C23.5133 6.87949 23.2989 5.88119 22.8701 5.14799C22.4412 4.41425 21.7038 4.04764 20.6578 4.04764C19.9625 4.04764 19.4005 4.2134 18.9716 4.54491C18.5494 4.87642 18.2407 5.34884 18.0458 5.9611C17.8573 6.57337 17.7631 7.30009 17.7631 8.14235ZM43.3703 8.14235C43.3703 9.22002 43.2371 10.2021 42.9707 11.0887C42.7108 11.9687 42.3015 12.7278 41.7427 13.3655C41.1839 14.0031 40.4659 14.4944 39.5888 14.8389C38.7116 15.1769 37.6623 15.3459 36.4408 15.3459C35.2454 15.3459 34.209 15.1769 33.3318 14.8389C32.4612 14.4944 31.7433 14.0064 31.178 13.3752C30.6128 12.737 30.1936 11.9752 29.9207 11.0887C29.6479 10.2021 29.5114 9.21355 29.5114 8.12292C29.5114 6.66893 29.7551 5.40607 30.2423 4.33434C30.7362 3.25667 31.4963 2.42466 32.523 1.83778C33.5495 1.24441 34.862 0.947998 36.4604 0.947998C38.0847 0.947998 39.4036 1.24441 40.4172 1.83778C41.4373 2.4306 42.1845 3.26639 42.6589 4.34406C43.1331 5.42173 43.3703 6.68782 43.3703 8.14235ZM33.5657 8.14235C33.5657 8.98408 33.6632 9.70757 33.8581 10.3139C34.0531 10.9197 34.3617 11.3851 34.784 11.7107C35.2063 12.0357 35.7586 12.1982 36.4408 12.1982C37.149 12.1982 37.7111 12.0357 38.1269 11.7107C38.5492 11.3851 38.8514 10.9197 39.0333 10.3139C39.2217 9.70757 39.3159 8.98408 39.3159 8.14235C39.3159 6.87949 39.1015 5.88119 38.6727 5.14799C38.2438 4.41425 37.5064 4.04764 36.4604 4.04764C35.7651 4.04764 35.2031 4.2134 34.7743 4.54491C34.352 4.87642 34.0433 5.34884 33.8484 5.9611C33.66 6.57337 33.5657 7.30009 33.5657 8.14235ZM59.407 15.1542H54.3583L49.154 5.30078H49.0663C49.0988 5.60044 49.128 5.9611 49.154 6.3817C49.18 6.80283 49.2027 7.23314 49.2222 7.67317C49.2417 8.10726 49.2514 8.49924 49.2514 8.85018V15.1542H45.8403V1.16828H50.8693L56.0543 10.8878H56.1127C56.0932 10.5817 56.0738 10.2275 56.0543 9.8258C56.0349 9.41763 56.0154 9.00622 55.9954 8.59156C55.9824 8.17691 55.9759 7.81031 55.9759 7.49176V1.16828H59.407V15.1542ZM68.7279 4.06654C68.2732 4.06654 67.8673 4.16211 67.5099 4.35378C67.1526 4.53843 66.8477 4.80947 66.5936 5.16689C66.3401 5.52377 66.1455 5.9611 66.0093 6.47726C65.8795 6.98748 65.8141 7.56789 65.8141 8.21849C65.8141 9.09855 65.9282 9.83876 66.1552 10.4381C66.3828 11.0374 66.7272 11.4904 67.1888 11.7965C67.6564 12.1026 68.2408 12.2554 68.9425 12.2554C69.5793 12.2554 70.1902 12.1696 70.7751 11.9973C71.3665 11.8251 71.9611 11.6178 72.5585 11.3754V14.5706C71.9287 14.8449 71.2816 15.043 70.6194 15.1639C69.9631 15.2849 69.2647 15.3459 68.5235 15.3459C66.9775 15.3459 65.7103 15.0457 64.7221 14.4464C63.742 13.8406 63.0171 13.0021 62.5495 11.9304C62.0878 10.8592 61.8575 9.61524 61.8575 8.19959C61.8575 7.14081 62.0067 6.17113 62.3057 5.29107C62.6111 4.41101 63.0566 3.64919 63.6409 3.00507C64.2259 2.35447 64.947 1.85343 65.8044 1.50303C66.6682 1.14561 67.6564 0.966897 68.7673 0.966897C69.456 0.966897 70.1799 1.0468 70.9405 1.20608C71.7071 1.35941 72.4542 1.60831 73.1823 1.95224L72.0028 4.92771C71.4833 4.68529 70.9567 4.4812 70.4242 4.31544C69.8912 4.14969 69.3263 4.06654 68.7279 4.06654ZM87.455 15.1542H83.586V9.45273H79.112V15.1542H75.2431V1.16828H79.112V6.35308H83.586V1.16828H87.455V15.1542Z" fill="#87C1FB"/>
</svg>
