<svg width="18" height="18" viewBox="0 0 18 18" fill="none" xmlns="http://www.w3.org/2000/svg">
<path d="M8.94486 0.00341797H8.90535C4.12567 0.00341797 0.250977 3.87926 0.250977 8.66034V8.69986C0.250977 13.4809 4.12567 17.3568 8.90535 17.3568H8.94486C13.7245 17.3568 17.5992 13.4809 17.5992 8.69986V8.66034C17.5992 3.87926 13.7245 0.00341797 8.94486 0.00341797Z" fill="url(#paint0_linear_1_319)"/>
<path d="M11.6095 3.53418H6.24149C4.75847 3.53418 3.552 4.74101 3.552 6.22446V11.1369C3.552 12.6203 4.75847 13.8272 6.24149 13.8272H11.6095C13.0925 13.8272 14.299 12.6203 14.299 11.1369V6.22446C14.299 4.74101 13.0925 3.53418 11.6095 3.53418ZM4.50077 6.22446C4.50077 5.26447 5.28178 4.48323 6.24149 4.48323H11.6095C12.5692 4.48323 13.3502 5.26447 13.3502 6.22446V11.1369C13.3502 12.0969 12.5692 12.8781 11.6095 12.8781H6.24149C5.28178 12.8781 4.50077 12.0969 4.50077 11.1369V6.22446Z" fill="white"/>
<path d="M8.92551 11.1826C10.3046 11.1826 11.4272 10.0602 11.4272 8.68015C11.4272 7.30005 10.3052 6.17773 8.92551 6.17773C7.54582 6.17773 6.42383 7.30005 6.42383 8.68015C6.42383 10.0602 7.54582 11.1826 8.92551 11.1826ZM8.92551 7.12739C9.78189 7.12739 10.4784 7.82412 10.4784 8.68076C10.4784 9.53739 9.78189 10.2341 8.92551 10.2341C8.06913 10.2341 7.3726 9.53739 7.3726 8.68076C7.3726 7.82412 8.06913 7.12739 8.92551 7.12739Z" fill="white"/>
<path d="M11.6587 6.58188C12.03 6.58188 12.3327 6.27972 12.3327 5.90764C12.3327 5.53556 12.0306 5.2334 11.6587 5.2334C11.2867 5.2334 10.9846 5.53556 10.9846 5.90764C10.9846 6.27972 11.2867 6.58188 11.6587 6.58188Z" fill="white"/>
<defs>
<linearGradient id="paint0_linear_1_319" x1="2.78548" y1="14.8215" x2="15.0684" y2="2.54289" gradientUnits="userSpaceOnUse">
<stop stop-color="#FAAD4F"/>
<stop offset="0.35" stop-color="#DD2A7B"/>
<stop offset="0.62" stop-color="#9537B0"/>
<stop offset="1" stop-color="#515BD4"/>
</linearGradient>
</defs>
</svg>
