<svg width="28" height="28" viewBox="0 0 28 28" fill="none" xmlns="http://www.w3.org/2000/svg">
<path d="M22.9384 21.7829C25.0225 20.4245 26.4062 18.0788 26.4062 15.4126C26.4062 12.1725 24.3306 9.2954 21.3016 8.24071C21.2003 7.66696 20.9134 7.16915 20.5 6.78942L22.0694 4.15692C22.1875 3.96286 22.2212 3.73504 22.1622 3.51567C22.1032 3.29634 21.9597 3.11067 21.7657 2.99254L18.5847 1.17852C18.1797 0.950711 17.6735 1.08567 17.4372 1.48227L16.0113 3.88696L15.9354 3.84477C15.5388 3.61696 15.0241 3.75196 14.7963 4.14013L11.0922 10.3754C10.9741 10.5695 10.9404 10.8057 10.9994 11.0251C11.0585 11.236 11.2019 11.4301 11.396 11.5398L12.1975 11.9954L11.3622 13.2611C11.1007 13.6407 11.2104 14.1723 11.5985 14.4254C11.742 14.5267 11.9023 14.5689 12.0626 14.5689C12.3326 14.5689 12.6026 14.4338 12.7629 14.1892L13.6657 12.8392L14.0454 13.0501L13.767 14.4001C13.6741 14.8558 13.9695 15.3029 14.425 15.3958C14.4841 15.4042 14.5347 15.4126 14.5938 15.4126C14.9903 15.4126 15.3363 15.1342 15.4207 14.7376L15.581 13.9361L16.1632 14.2651C16.2982 14.341 16.4416 14.3748 16.5766 14.3748C16.872 14.3748 17.1504 14.2229 17.3107 13.9613L18.9644 11.177C19.825 11.1263 20.5675 10.6454 20.9894 9.93669C23.2085 10.8226 24.7188 12.9826 24.7188 15.4126C24.7188 18.6695 22.0694 21.3189 18.8125 21.3189C16.855 21.3189 15.0747 20.3486 13.9779 18.7876H17.125C17.5891 18.7876 17.9688 18.4079 17.9688 17.9439C17.9688 17.4798 17.5891 17.1001 17.125 17.1001H8.68754C8.22348 17.1001 7.84379 17.4798 7.84379 17.9439C7.84379 18.4079 8.22348 18.7876 8.68754 18.7876H12.0288C12.6447 20.0279 13.5644 21.0573 14.6866 21.7829L12.9991 25.1579C12.8641 25.4195 12.8809 25.7317 13.0329 25.9848C13.1847 26.2295 13.4547 26.3814 13.75 26.3814H23.875C24.1704 26.3814 24.4404 26.2295 24.5922 25.9848C24.7441 25.7317 24.761 25.4195 24.626 25.1579L22.9384 21.7829ZM16.2812 8.66259C16.2812 9.48946 16.6863 10.215 17.2938 10.6791L16.2812 12.3835L12.9738 10.5019L15.8172 5.71786L17.3612 6.59536C16.7116 7.05942 16.2812 7.8104 16.2812 8.66259ZM18.8125 9.50634C18.3484 9.50634 17.9688 9.12665 17.9688 8.66259C17.9688 8.19852 18.3484 7.81884 18.8125 7.81884C19.2766 7.81884 19.6562 8.19852 19.6562 8.66259C19.6562 9.12665 19.2766 9.50634 18.8125 9.50634ZM6.15625 11.1938C8.94906 11.1938 11.2188 8.92415 11.2188 6.13134C11.2188 3.33852 8.94906 1.06884 6.15625 1.06884C3.36344 1.06884 1.09375 3.33852 1.09375 6.13134C1.09375 8.92415 3.36344 11.1938 6.15625 11.1938ZM4.29156 5.53227C4.62063 5.20321 5.16067 5.20321 5.48973 5.53227L5.73442 5.7854L6.82285 4.68852C7.15192 4.35946 7.69196 4.35946 8.02102 4.68852C8.35004 5.01759 8.35004 5.55763 8.02102 5.88665L6.33352 7.57415C6.16477 7.73446 5.95383 7.81888 5.73446 7.81888C5.51508 7.81888 5.30415 7.73446 5.1354 7.57415L4.29165 6.7304C3.96263 6.40138 3.96254 5.86138 4.29156 5.53227ZM5.46438 19.9941C4.90754 20.7957 3.625 22.7701 3.625 23.8501C3.625 25.2422 4.76406 26.3813 6.15625 26.3813C7.54844 26.3813 8.6875 25.2422 8.6875 23.8501C8.6875 22.77 7.405 20.7957 6.84812 19.9941C6.53594 19.5385 5.77656 19.5385 5.46438 19.9941ZM6.15625 24.6938C5.69219 24.6938 5.3125 24.3141 5.3125 23.8501C5.32094 23.597 5.66687 22.8545 6.15625 22.036C6.64563 22.8545 6.99156 23.5886 7 23.8501C7 24.3141 6.62031 24.6938 6.15625 24.6938ZM6.15625 16.2563C6.15625 15.1763 4.87375 13.202 4.31688 12.4004C4.00469 11.9448 3.24531 11.9448 2.93313 12.4004C2.37629 13.202 1.09375 15.1763 1.09375 16.2563C1.09375 17.6485 2.23281 18.7876 3.625 18.7876C5.01719 18.7876 6.15625 17.6485 6.15625 16.2563ZM2.78125 16.2563C2.78969 16.0032 3.13563 15.2607 3.625 14.4423C4.11437 15.2608 4.46031 15.9948 4.46875 16.2563C4.46875 16.7204 4.08906 17.1001 3.625 17.1001C3.16094 17.1001 2.78125 16.7204 2.78125 16.2563Z" fill="black"/>
</svg>
