<svg width="29" height="29" viewBox="0 0 29 29" fill="none" xmlns="http://www.w3.org/2000/svg">
<g clip-path="url(#clip0_1_3424)">
<path d="M14.2491 19.4749C12.6799 19.4749 11.1615 19.262 9.85948 18.8601C9.78267 18.8363 9.71158 18.7969 9.65065 18.7444C9.58973 18.6919 9.54028 18.6275 9.5054 18.555L6.85823 13.0489C6.79992 12.9248 6.78708 12.7842 6.82198 12.6516C6.85688 12.519 6.93728 12.4029 7.04913 12.3235C7.16098 12.2442 7.29715 12.2068 7.43383 12.2177C7.57051 12.2286 7.69899 12.2873 7.79682 12.3833C7.95198 12.5391 8.15207 12.6943 8.40932 12.8582C9.73815 13.7145 11.9204 14.2249 14.2491 14.2249C16.5777 14.2249 18.76 13.7145 20.0871 12.8593C20.3087 12.7235 20.5149 12.5639 20.7019 12.3833C20.7992 12.2855 20.9281 12.2254 21.0656 12.2136C21.2031 12.2018 21.3403 12.2391 21.4529 12.3189C21.5654 12.3988 21.646 12.5159 21.6804 12.6496C21.7148 12.7832 21.7006 12.9247 21.6405 13.0489L18.9933 18.555C18.9584 18.6275 18.909 18.6919 18.8481 18.7444C18.7871 18.7969 18.716 18.8363 18.6392 18.8601C17.3366 19.262 15.8182 19.4749 14.2491 19.4749ZM10.4451 17.8171C12.7201 18.4611 15.7774 18.4611 18.0524 17.8171L19.7026 14.3818C18.235 15.0299 16.3135 15.3916 14.2491 15.3916C12.1852 15.3916 10.2643 15.0299 8.79432 14.3818L10.4451 17.8171Z" fill="black"/>
<path d="M14.2507 27.6418C14.1409 27.6418 14.0333 27.6108 13.9403 27.5524C13.8473 27.494 13.7727 27.4105 13.7251 27.3116L9.50815 18.5563C9.45878 18.454 9.44036 18.3396 9.45513 18.2269C9.46991 18.1143 9.51724 18.0085 9.59133 17.9224C9.66541 17.8362 9.76303 17.7736 9.87218 17.7422C9.98134 17.7108 10.0973 17.712 10.2058 17.7455C11.397 18.1136 12.7964 18.3084 14.2507 18.3084C15.7049 18.3084 17.1043 18.1136 18.2967 17.7455C18.4051 17.7122 18.521 17.7113 18.63 17.7428C18.739 17.7743 18.8365 17.8369 18.9105 17.9229C18.9845 18.0089 19.0318 18.1147 19.0467 18.2271C19.0616 18.3396 19.0434 18.454 18.9943 18.5563L14.7774 27.3116C14.7293 27.4104 14.6545 27.4938 14.5613 27.5522C14.4682 27.6105 14.3606 27.6416 14.2507 27.6418ZM11.1007 19.1729L14.2507 25.7133L17.4007 19.1729C15.4255 19.5702 13.0758 19.5702 11.1007 19.1729ZM14.2507 15.3918C11.1339 15.3918 8.34673 14.5564 6.97648 13.2124C6.39315 12.6437 6.08398 11.9851 6.08398 11.3084C6.08398 9.01885 9.6709 7.2251 14.2507 7.2251C18.8304 7.2251 22.4173 9.01885 22.4173 11.3084C22.4173 11.9851 22.1082 12.6437 21.5237 13.2136C20.1546 14.5564 17.3674 15.3918 14.2507 15.3918ZM14.2507 8.39176C10.1253 8.39176 7.25065 9.92885 7.25065 11.3084C7.25065 11.6678 7.43265 12.0277 7.79257 12.3777C8.93648 13.5006 11.4705 14.2251 14.2507 14.2251C17.0308 14.2251 19.5648 13.5006 20.7076 12.3794C21.0681 12.0277 21.2507 11.6678 21.2507 11.3084C21.2507 9.92885 18.376 8.39176 14.2507 8.39176Z" fill="black"/>
<path d="M14.2503 22.9753C13.442 22.9765 12.6348 22.9179 11.8353 22.7997C11.7415 22.7854 11.6526 22.7486 11.5763 22.6923C11.4999 22.636 11.4385 22.5619 11.3972 22.4765L9.5072 18.5565C9.45783 18.4542 9.4394 18.3397 9.45418 18.2271C9.46895 18.1145 9.51629 18.0086 9.59037 17.9225C9.66446 17.8364 9.76207 17.7738 9.87123 17.7424C9.98039 17.711 10.0963 17.7121 10.2049 17.7457C11.3966 18.1138 12.796 18.3086 14.2503 18.3086C15.7045 18.3086 17.1039 18.1138 18.2963 17.7457C18.4048 17.7124 18.5206 17.7115 18.6296 17.743C18.7386 17.7745 18.8361 17.8371 18.9101 17.9231C18.9841 18.0091 19.0315 18.1148 19.0464 18.2273C19.0612 18.3398 19.043 18.4542 18.9939 18.5565L17.1039 22.4765C17.0627 22.5619 17.0012 22.636 16.9249 22.6923C16.8485 22.7486 16.7596 22.7854 16.6659 22.7997C15.8912 22.9158 15.0792 22.9753 14.2503 22.9753ZM12.3124 21.6878C13.5614 21.8477 14.9398 21.8477 16.1887 21.6878L17.4009 19.1731C15.4251 19.5703 13.076 19.5703 11.1003 19.1731L12.3124 21.6878ZM14.2503 6.05859C14.0956 6.05859 13.9472 5.99714 13.8378 5.88774C13.7284 5.77834 13.6669 5.62997 13.6669 5.47526C13.6669 2.90218 15.7605 0.808594 18.3336 0.808594C18.4883 0.808594 18.6367 0.870052 18.7461 0.979448C18.8555 1.08884 18.9169 1.23722 18.9169 1.39193C18.9169 1.54664 18.8555 1.69501 18.7461 1.80441C18.6367 1.9138 18.4883 1.97526 18.3336 1.97526C16.4034 1.97526 14.8336 3.54501 14.8336 5.47526C14.8336 5.62997 14.7722 5.77834 14.6628 5.88774C14.5534 5.99714 14.405 6.05859 14.2503 6.05859Z" fill="black"/>
<path d="M14.2499 6.05835C14.0952 6.05835 13.9468 5.99689 13.8374 5.8875C13.728 5.7781 13.6666 5.62973 13.6666 5.47502C13.6666 3.54477 12.0968 1.97502 10.1666 1.97502C10.0119 1.97502 9.8635 1.91356 9.7541 1.80416C9.6447 1.69477 9.58325 1.54639 9.58325 1.39168C9.58325 1.23697 9.6447 1.0886 9.7541 0.979204C9.8635 0.869808 10.0119 0.80835 10.1666 0.80835C12.7397 0.80835 14.8332 2.90193 14.8332 5.47502C14.8332 5.62973 14.7718 5.7781 14.6624 5.8875C14.553 5.99689 14.4046 6.05835 14.2499 6.05835ZM24.1666 6.05835C24.09 6.05843 24.0141 6.04337 23.9433 6.01404C23.8725 5.98471 23.8083 5.94168 23.7542 5.88743C23.0893 5.22452 22.1888 4.85226 21.2499 4.85226C20.3111 4.85226 19.4105 5.22452 18.7457 5.88743C18.6363 5.99681 18.4879 6.05826 18.3332 6.05826C18.1786 6.05826 18.0302 5.99681 17.9208 5.88743C17.8114 5.77805 17.75 5.6297 17.75 5.47502C17.75 5.32033 17.8114 5.17198 17.9208 5.0626C19.756 3.22743 22.7438 3.22743 24.579 5.0626C24.6608 5.14407 24.7166 5.24802 24.7393 5.36125C24.7619 5.47449 24.7505 5.5919 24.7063 5.69859C24.6621 5.80528 24.5872 5.89644 24.4911 5.96049C24.395 6.02455 24.2821 6.05861 24.1666 6.05835ZM10.1666 6.05835C10.09 6.05843 10.0141 6.04337 9.94332 6.01404C9.87254 5.98471 9.80826 5.94168 9.75416 5.88743C9.08933 5.22452 8.18877 4.85226 7.24991 4.85226C6.31105 4.85226 5.41049 5.22452 4.74566 5.88743C4.63628 5.99681 4.48793 6.05826 4.33325 6.05826C4.17856 6.05826 4.03021 5.99681 3.92083 5.88743C3.81145 5.77805 3.75 5.6297 3.75 5.47502C3.75 5.39842 3.76509 5.32258 3.7944 5.25182C3.82371 5.18106 3.86667 5.11676 3.92083 5.0626C5.756 3.22743 8.74383 3.22743 10.579 5.0626C10.6608 5.14407 10.7166 5.24802 10.7393 5.36125C10.7619 5.47449 10.7505 5.5919 10.7063 5.69859C10.6621 5.80528 10.5872 5.89644 10.4911 5.96049C10.395 6.02455 10.2821 6.05861 10.1666 6.05835Z" fill="black"/>
</g>
<defs>
<clipPath id="clip0_1_3424">
<rect width="28" height="28" fill="white" transform="translate(0.25 0.225098)"/>
</clipPath>
</defs>
</svg>
