<svg width="32" height="33" viewBox="0 0 32 33" fill="none" xmlns="http://www.w3.org/2000/svg">
<path d="M26 8.16406C26 8.71706 25.552 9.16406 25 9.16406H11.802L9.976 17.3811C9.881 17.8101 9.518 18.1251 9.081 18.1611C9.054 18.1631 9.026 18.1641 8.999 18.1641C8.593 18.1641 8.224 17.9171 8.071 17.5351L6.071 12.5351C5.866 12.0221 6.115 11.4401 6.628 11.2351C7.143 11.0291 7.723 11.2791 7.928 11.7931L8.725 13.7871L10.023 7.94706C10.125 7.48906 10.53 7.16406 10.999 7.16406H24.999C25.551 7.16406 26 7.61106 26 8.16406ZM30 5.16406V20.1641C30 21.8181 28.654 23.1641 27 23.1641H19V28.1641H22C22.552 28.1641 23 28.6111 23 29.1641C23 29.7171 22.552 30.1641 22 30.1641H10C9.448 30.1641 9 29.7171 9 29.1641C9 28.6111 9.448 28.1641 10 28.1641H13V23.1641H5C3.346 23.1641 2 21.8181 2 20.1641V5.16406C2 3.51006 3.346 2.16406 5 2.16406H27C28.654 2.16406 30 3.51006 30 5.16406ZM17 23.1641H15V28.1641H17V23.1641ZM28 5.16406C28 4.61206 27.551 4.16406 27 4.16406H5C4.449 4.16406 4 4.61206 4 5.16406V20.1641C4 20.7161 4.449 21.1641 5 21.1641H27C27.551 21.1641 28 20.7161 28 20.1641V5.16406ZM20.784 11.3801C20.393 10.9891 19.761 10.9891 19.37 11.3801L18 12.7501L16.63 11.3801C16.239 10.9891 15.607 10.9891 15.216 11.3801C14.825 11.7711 14.825 12.4031 15.216 12.7941L16.586 14.1641L15.216 15.5341C14.825 15.9251 14.825 16.5571 15.216 16.9481C15.411 17.1431 15.667 17.2411 15.923 17.2411C16.179 17.2411 16.435 17.1431 16.63 16.9481L18 15.5781L19.37 16.9481C19.565 17.1431 19.821 17.2411 20.077 17.2411C20.333 17.2411 20.589 17.1431 20.784 16.9481C21.175 16.5571 21.175 15.9251 20.784 15.5341L19.414 14.1641L20.784 12.7941C21.175 12.4031 21.175 11.7711 20.784 11.3801Z" fill="black"/>
</svg>
