<svg width="30" height="30" viewBox="0 0 30 30" fill="none" xmlns="http://www.w3.org/2000/svg">
<path d="M22.6976 14.7255C24.1992 12.8484 25.4427 10.9918 26.3327 9.27093C28.011 6.02699 28.2546 3.669 27.0343 2.44955C24.921 0.337768 19.7466 2.79697 14.7493 6.79172C9.75199 2.79697 4.57752 0.337768 2.46429 2.44955C1.24397 3.669 1.48757 6.02699 3.1658 9.27122C4.05581 10.9918 5.29933 12.8487 6.80095 14.7258C5.29933 16.603 4.05581 18.4596 3.1658 20.1801C1.48757 23.4244 1.24397 25.7824 2.46429 27.0018C2.99789 27.5348 3.7255 27.7752 4.59492 27.7752C7.17476 27.7752 11.0126 25.6461 14.7493 22.6626C18.4856 25.6461 22.3238 27.7752 24.9036 27.7752C25.7733 27.7752 26.5009 27.5348 27.0343 27.0018C28.2546 25.7824 28.0113 23.4244 26.3327 20.1801C25.4427 18.4596 24.1992 16.6027 22.6976 14.7255ZM24.921 2.84627C25.4891 2.84627 25.9296 2.98518 26.2138 3.26909C27.0053 4.05992 26.666 6.105 25.3035 8.73791C24.4744 10.337 23.3295 12.0604 21.9439 13.81C21.0191 12.7121 20.0134 11.6144 18.938 10.5397C17.8888 9.49394 16.7842 8.483 15.6625 7.53876C19.5554 4.46273 22.9847 2.84627 24.921 2.84627ZM4.19501 8.7382C2.83259 6.105 2.49358 4.05992 3.2847 3.26938C3.5689 2.98547 4.00941 2.84656 4.57752 2.84656C6.51385 2.84656 9.94311 4.46302 13.8361 7.53934C12.7143 8.48358 11.6097 9.49452 10.5605 10.5403C9.48519 11.615 8.47918 12.7126 7.55466 13.8106C6.16904 12.0607 5.02412 10.3373 4.19501 8.7382ZM4.57752 26.6051C4.00941 26.6051 3.5689 26.4662 3.2847 26.1823C2.49329 25.3915 2.83259 23.3464 4.19501 20.7135C5.02412 19.1144 6.16904 17.3909 7.55466 15.6414C8.47947 16.7393 9.48519 17.8369 10.5605 18.9117C11.6068 19.9574 12.7114 20.9713 13.8361 21.9155C9.94311 24.9886 6.51385 26.608 4.57752 26.6051ZM11.3809 18.0916C10.2737 16.9849 9.23869 15.8525 8.29967 14.7255C9.23898 13.5986 10.2737 12.4661 11.3809 11.3595C12.52 10.221 13.6479 9.19553 14.7493 8.27739C15.8507 9.19553 16.9785 10.221 18.1176 11.3595C19.2248 12.4661 20.2599 13.5986 21.1989 14.7255C20.2596 15.8525 19.2248 16.9849 18.1176 18.0916C16.9785 19.2301 15.8507 20.2555 14.7493 21.1737C13.6479 20.2555 12.52 19.2301 11.3809 18.0916ZM26.2138 26.182C24.9645 27.4304 20.7033 25.8952 15.6625 21.9152C16.7871 20.971 17.8888 19.9571 18.938 18.9114C20.0134 17.8367 21.0194 16.739 21.9439 15.6411C23.3295 17.3906 24.4744 19.1141 25.3035 20.7132C26.666 23.3461 27.0053 25.3912 26.2138 26.182Z" fill="black"/>
<path d="M14.7496 11.8252C13.1517 11.8252 11.8496 13.1273 11.8496 14.7252C11.8496 16.3231 13.1517 17.6252 14.7496 17.6252C16.3475 17.6252 17.6496 16.3231 17.6496 14.7252C17.6496 13.1273 16.3475 11.8252 14.7496 11.8252Z" fill="black"/>
</svg>
