<svg width="33" height="33" viewBox="0 0 33 33" fill="none" xmlns="http://www.w3.org/2000/svg">
<path d="M26.8262 14.9612C26.8262 9.44718 22.3402 4.96118 16.8262 4.96118C11.3122 4.96118 6.82617 9.44718 6.82617 14.9612C6.82617 20.4752 11.3122 24.9612 16.8262 24.9612C22.3402 24.9612 26.8262 20.4752 26.8262 14.9612ZM19.6742 22.4282C20.5112 21.3852 21.1732 20.2152 21.6222 18.9612H23.7442C22.8292 20.5372 21.3942 21.7692 19.6742 22.4282ZM13.5392 16.9612C13.4032 16.3072 13.3262 15.6392 13.3262 14.9612C13.3262 14.2832 13.4032 13.6152 13.5392 12.9612H20.1132C20.2492 13.6152 20.3262 14.2832 20.3262 14.9612C20.3262 15.6392 20.2492 16.3072 20.1132 16.9612H13.5392ZM24.5622 12.9612C24.7282 13.6022 24.8262 14.2702 24.8262 14.9612C24.8262 15.6522 24.7282 16.3202 24.5622 16.9612H22.1342C22.2472 16.3032 22.3252 15.6372 22.3252 14.9612C22.3252 14.2852 22.2472 13.6192 22.1342 12.9612H24.5622ZM23.7442 10.9612H21.6222C21.1732 9.70718 20.5112 8.53718 19.6742 7.49418C21.3942 8.15318 22.8292 9.38518 23.7442 10.9612ZM16.8262 7.39618C17.9742 8.37718 18.8692 9.60318 19.4702 10.9612H14.1832C14.7832 9.60318 15.6782 8.37718 16.8262 7.39618ZM13.9782 7.49418C13.1412 8.53818 12.4792 9.70718 12.0302 10.9612H9.90917C10.8232 9.38518 12.2582 8.15318 13.9782 7.49418ZM9.08917 16.9612C8.92417 16.3202 8.82617 15.6522 8.82617 14.9612C8.82617 14.2702 8.92417 13.6022 9.08917 12.9612H11.5172C11.4042 13.6192 11.3262 14.2852 11.3262 14.9612C11.3262 15.6372 11.4042 16.3032 11.5172 16.9612H9.08917ZM9.90917 18.9612H12.0312C12.4802 20.2152 13.1422 21.3842 13.9792 22.4282C12.2582 21.7692 10.8232 20.5372 9.90917 18.9612ZM14.1832 18.9612H19.4702C18.8692 20.3192 17.9752 21.5452 16.8262 22.5262C15.6782 21.5452 14.7832 20.3192 14.1832 18.9612Z" fill="black"/>
<path d="M29.8262 14.9612C29.8262 7.79318 23.9942 1.96118 16.8262 1.96118C16.2742 1.96118 15.8262 2.40918 15.8262 2.96118C15.8262 3.51318 16.2742 3.96118 16.8262 3.96118C22.8912 3.96118 27.8262 8.89618 27.8262 14.9612C27.8262 21.0262 22.8912 25.9612 16.8262 25.9612C16.2742 25.9612 15.8262 26.4092 15.8262 26.9612V27.9612C15.8262 29.0642 14.9292 29.9612 13.8262 29.9612H11.8262C11.2742 29.9612 10.8262 30.4092 10.8262 30.9612C10.8262 31.5132 11.2742 31.9612 11.8262 31.9612H21.8262C22.3792 31.9612 22.8262 31.5132 22.8262 30.9612C22.8262 30.4092 22.3792 29.9612 21.8262 29.9612H19.8262C18.7232 29.9612 17.8262 29.0642 17.8262 27.9612V27.9102C24.5272 27.3972 29.8262 21.7922 29.8262 14.9612Z" fill="black"/>
</svg>
