<svg width="29" height="28" viewBox="0 0 29 28" fill="none" xmlns="http://www.w3.org/2000/svg">
<g clip-path="url(#clip0_1_3445)">
<path d="M28.0355 5.18954L27.4953 5.08337C27.253 5.03574 25.0927 4.65378 23.8588 5.88788C23.1671 6.57959 22.9831 7.56247 22.9635 8.33557L21.6179 9.21613V8.28943C21.6179 5.56787 19.4039 3.35367 16.6823 3.35367C15.6432 3.35367 14.6531 3.68008 13.8343 4.25858L7.11029 0L6.87616 1.17065C6.70184 2.04181 6.60785 2.94907 6.59503 3.85504L3.38129 1.79379L2.22537 1.05209L1.9953 2.23898C1.01584 7.29031 2.72995 12.5602 6.38419 15.9465L0.25 25.9546L6.55316 28L8.26471 23.0307H10.9591C15.0278 23.0307 18.3379 19.7206 18.3379 15.6519V11.5525H20.554L22.5226 12.8385C22.5631 13.5072 22.7874 15.1739 23.9972 15.9897C25.0367 16.691 26.5867 16.5462 27.7202 16.0856L28.2303 15.8782L28.2316 15.3277C28.2321 15.0807 28.1947 12.8872 26.748 11.9114C25.7303 11.225 24.4163 11.4109 23.6462 11.6138L22.2961 10.732L23.2801 10.0881L23.7007 10.1708C24.9087 10.4079 26.456 10.2475 27.3372 9.3663C28.5713 8.13242 28.1893 5.97205 28.1417 5.7298L28.0355 5.18954ZM25.8311 13.2709C26.2488 13.5527 26.4489 14.213 26.5352 14.734C26.0281 14.8472 25.3349 14.9141 24.9141 14.6304C24.4962 14.3484 24.2958 13.6877 24.2097 13.1671C24.7169 13.0541 25.4103 12.987 25.8311 13.2709ZM8.30295 2.69635L12.6472 5.44781C12.5429 5.59628 12.4455 5.75073 12.3569 5.91202L11.6521 7.09848L8.26151 4.9238C8.21344 4.18573 8.2269 3.43463 8.30295 2.69635ZM16.7037 9.91275V15.6517C16.7037 18.8163 14.1235 21.3909 10.9591 21.3909H7.09534L5.52734 25.9432L2.7355 25.037L7.65567 17.0102L8.80774 17.9317L9.83206 16.6513L8.16217 15.3155C4.77689 12.6072 2.99164 8.17941 3.427 3.77109L12.327 9.47931L12.3351 9.48444C13.7471 10.3671 14.2504 12.156 13.5057 13.6454L14.9723 14.3788C15.5134 13.2965 15.6309 12.0592 15.3032 10.8946C14.9761 9.73138 14.2323 8.73804 13.2084 8.09674L13.033 7.98416C13.1103 7.85406 12.7531 8.45584 13.789 6.71097C14.3669 5.6514 15.4756 4.99344 16.6823 4.99344C18.4998 4.99344 19.9783 6.47192 19.9783 8.28922V9.91254H16.7037V9.91275ZM26.1776 8.20676C25.8211 8.56329 25.1339 8.63379 24.6062 8.61884C24.5913 8.09076 24.6618 7.40375 25.0183 7.04721C25.3746 6.6911 26.0608 6.62039 26.5891 6.63535C26.6032 7.15445 26.5365 7.84787 26.1776 8.20676Z" fill="black"/>
<path d="M16.6992 6.6333H18.339V8.27307H16.6992V6.6333Z" fill="black"/>
</g>
<defs>
<clipPath id="clip0_1_3445">
<rect width="28" height="28" fill="white" transform="translate(0.25)"/>
</clipPath>
</defs>
</svg>
