<svg width="34" height="35" viewBox="0 0 34 35" fill="none" xmlns="http://www.w3.org/2000/svg">
<path fill-rule="evenodd" clip-rule="evenodd" d="M8.96131 10.8371C9.67754 7.31834 12.7075 4.67627 16.3361 4.67627H17.0822C20.7109 4.67627 23.7409 7.31842 24.4571 10.8373C25.2674 11.0634 26.0282 11.3254 26.7274 11.6201C28.0751 12.1882 29.2348 12.8946 30.0738 13.7353C30.916 14.5792 31.4942 15.6243 31.4942 16.8259C31.4942 18.0119 30.9307 19.0459 30.1063 19.8838C29.2855 20.7179 28.1508 21.4203 26.8316 21.9874C24.1887 23.1235 20.6092 23.8011 16.7088 23.8011C13.9105 23.8011 11.2858 23.4525 9.056 22.8409C6.84343 22.234 4.94604 21.3482 3.66727 20.2202C3.23461 19.8386 3.18412 19.1679 3.55452 18.7221C3.9249 18.2763 4.57589 18.2243 5.00855 18.6059C5.96203 19.4469 7.53118 20.2238 9.58656 20.7875C11.6247 21.3465 14.0694 21.6761 16.7088 21.6761C20.4047 21.6761 23.7022 21.0301 26.0374 20.0263C27.2071 19.5234 28.0865 18.9516 28.6579 18.371C29.2255 17.7942 29.4317 17.2727 29.4317 16.8259C29.4317 16.3735 29.22 15.844 28.6357 15.2586C28.0483 14.6699 27.145 14.092 25.9465 13.587C25.506 13.4013 25.0308 13.2277 24.5243 13.0683C24.4275 13.3821 24.2405 13.7063 23.8995 13.9505C23.3307 14.3578 22.272 14.8309 20.2794 15.0953C19.7145 15.1702 19.1976 14.7593 19.1249 14.1772C19.0521 13.5952 19.4511 13.0627 20.016 12.9877C21.4808 12.7934 22.2196 12.4936 22.5536 12.3101C22.4877 9.25639 20.0636 6.80127 17.0822 6.80127H16.3361C13.3548 6.80127 10.9307 9.25641 10.8648 12.3101C11.3972 12.6027 12.9324 13.1763 16.7091 13.1763C17.2786 13.1763 17.7404 13.652 17.7404 14.2388C17.7404 14.8256 17.2786 15.3013 16.7091 15.3013C12.2452 15.3013 10.3449 14.5424 9.5181 13.95C9.17721 13.7058 8.99048 13.3817 8.89377 13.0681C7.18079 13.6072 5.85407 14.3001 5.00855 15.0458C4.57589 15.4275 3.9249 15.3755 3.55452 14.9297C3.18412 14.484 3.23461 13.8132 3.66727 13.4316C4.92491 12.3224 6.78384 11.4447 8.96131 10.8371Z" fill="black"/>
<path fill-rule="evenodd" clip-rule="evenodd" d="M17.082 21.6761C17.6515 21.6761 18.1132 22.1519 18.1132 22.7386V26.9886C18.1132 27.5754 17.6515 28.0511 17.082 28.0511C16.5125 28.0511 16.0507 27.5754 16.0507 26.9886V22.7386C16.0507 22.1519 16.5125 21.6761 17.082 21.6761ZM8.60633 21.08C9.11571 21.3425 9.3221 21.9809 9.06732 22.5056L7.69183 25.3389C7.43704 25.8638 6.81756 26.0764 6.30819 25.8139C5.79881 25.5514 5.59242 24.9131 5.8472 24.3883L7.22271 21.555C7.47748 21.0301 8.09696 20.8175 8.60633 21.08ZM25.5576 21.08C25.0483 21.3425 24.8419 21.9809 25.0967 22.5056L26.4721 25.3389C26.7269 25.8638 27.3465 26.0764 27.8558 25.8139C28.3652 25.5514 28.5716 24.9131 28.3168 24.3883L26.9413 21.555C26.6865 21.0301 26.0671 20.8175 25.5576 21.08Z" fill="black"/>
<path d="M18.457 18.4886C18.457 19.271 17.8414 19.9053 17.082 19.9053C16.3226 19.9053 15.707 19.271 15.707 18.4886C15.707 17.7062 16.3226 17.0719 17.082 17.0719C17.8414 17.0719 18.457 17.7062 18.457 18.4886ZM11.582 17.0719C11.582 17.8544 10.9664 18.4886 10.207 18.4886C9.44765 18.4886 8.83203 17.8544 8.83203 17.0719C8.83203 16.2895 9.44765 15.6553 10.207 15.6553C10.9664 15.6553 11.582 16.2895 11.582 17.0719ZM25.332 17.0719C25.332 17.8544 24.7164 18.4886 23.957 18.4886C23.1976 18.4886 22.582 17.8544 22.582 17.0719C22.582 16.2895 23.1976 15.6553 23.957 15.6553C24.7164 15.6553 25.332 16.2895 25.332 17.0719Z" fill="black"/>
</svg>
