<svg width="25" height="25" viewBox="0 0 25 25" fill="none" xmlns="http://www.w3.org/2000/svg">
<path fill-rule="evenodd" clip-rule="evenodd" d="M19.3223 19.73C16.2662 22.7865 11.7408 23.4469 8.03739 21.7342C7.49068 21.5141 7.04246 21.3362 6.61635 21.3362C5.42947 21.3432 3.95214 22.494 3.18434 21.7271C2.41653 20.9592 3.56824 19.4808 3.56824 18.2867C3.56824 17.8605 3.39739 17.4203 3.1773 16.8725C1.46381 13.1698 2.12509 8.64284 5.18123 5.58736C9.08257 1.68459 15.421 1.68459 19.3223 5.58636C23.2307 9.49516 23.2237 15.8282 19.3223 19.73Z" stroke="black" stroke-width="1.5" stroke-linecap="round" stroke-linejoin="round"/>
<path d="M16.1908 13.0732H16.1998" stroke="black" stroke-width="2" stroke-linecap="round" stroke-linejoin="round"/>
<path d="M12.181 13.0732H12.19" stroke="black" stroke-width="2" stroke-linecap="round" stroke-linejoin="round"/>
<path d="M8.17226 13.0732H8.18126" stroke="black" stroke-width="2" stroke-linecap="round" stroke-linejoin="round"/>
</svg>
