<svg width="33" height="32" viewBox="0 0 33 32" fill="none" xmlns="http://www.w3.org/2000/svg">
<path fill-rule="evenodd" clip-rule="evenodd" d="M19.3877 2.66602C19.4451 2.66602 19.5013 2.67086 19.5561 2.68015L19.7362 2.68122C20.0082 2.68122 20.2682 2.79188 20.4576 2.98788L27.2122 10.0239C27.3895 10.2092 27.4897 10.4585 27.4897 10.7159V22.9692C27.5109 26.3145 24.9029 29.0332 21.5522 29.1532H10.6989C7.44525 29.0833 4.83582 26.4541 4.75537 23.2335L4.75488 8.65321C4.83355 5.34522 7.56422 2.68122 10.8469 2.68122L19.2193 2.68015C19.274 2.67086 19.3303 2.66602 19.3877 2.66602ZM18.3869 4.68068L10.8509 4.68122C8.64155 4.68122 6.80688 6.47055 6.75488 8.67722V22.9692C6.70688 25.2372 8.49355 27.1039 10.7402 27.1532H21.5176C23.7429 27.0732 25.5042 25.2372 25.4896 22.9759L25.4896 11.9767L22.8117 11.978C20.3703 11.9713 18.3877 9.98202 18.3877 7.54468L18.3869 4.68068ZM15.6087 12.2112C15.8847 12.2112 16.1348 12.3232 16.3158 12.5042L16.3172 12.5051L19.4452 15.6464C19.8345 16.0384 19.8332 16.6704 19.4425 17.0597C19.0505 17.4491 18.4172 17.4491 18.0278 17.0571L16.6082 15.6313L16.6087 21.2659C16.6087 21.8179 16.1607 22.2659 15.6087 22.2659C15.0567 22.2659 14.6087 21.8179 14.6087 21.2659L14.6082 15.6313L13.1905 17.0571C12.9958 17.2544 12.7385 17.3517 12.4825 17.3517C12.2278 17.3517 11.9718 17.2544 11.7772 17.0597C11.3865 16.6704 11.3838 16.0384 11.7745 15.6464L14.8998 12.5051L14.9444 12.464C14.9637 12.4468 14.9837 12.4304 15.0042 12.4147L14.8998 12.5051C14.937 12.4678 14.977 12.4341 15.0193 12.4042C15.184 12.2828 15.3881 12.2112 15.6087 12.2112ZM20.3869 5.80202L20.3877 7.54468C20.3877 8.88335 21.4757 9.97402 22.8144 9.97802L24.3936 9.97668L20.3869 5.80202Z" fill="#282A37"/>
</svg>
