<svg width="25" height="25" viewBox="0 0 25 25" fill="none" xmlns="http://www.w3.org/2000/svg">
<path d="M3.75098 18.75V12.75C3.75098 10.3631 4.69919 8.07387 6.38702 6.38604C8.07484 4.69821 10.364 3.75 12.751 3.75C15.1379 3.75 17.4271 4.69821 19.1149 6.38604C20.8028 8.07387 21.751 10.3631 21.751 12.75V18.75" stroke="black" stroke-width="1.5" stroke-linecap="round" stroke-linejoin="round"/>
<path d="M21.751 19.75C21.751 20.2804 21.5403 20.7891 21.1652 21.1642C20.7901 21.5393 20.2814 21.75 19.751 21.75H18.751C18.2205 21.75 17.7118 21.5393 17.3368 21.1642C16.9617 20.7891 16.751 20.2804 16.751 19.75V16.75C16.751 16.2196 16.9617 15.7109 17.3368 15.3358C17.7118 14.9607 18.2205 14.75 18.751 14.75H21.751V19.75ZM3.75098 19.75C3.75098 20.2804 3.96169 20.7891 4.33676 21.1642C4.71184 21.5393 5.22054 21.75 5.75098 21.75H6.75098C7.28141 21.75 7.79012 21.5393 8.16519 21.1642C8.54026 20.7891 8.75098 20.2804 8.75098 19.75V16.75C8.75098 16.2196 8.54026 15.7109 8.16519 15.3358C7.79012 14.9607 7.28141 14.75 6.75098 14.75H3.75098V19.75Z" stroke="black" stroke-width="1.5" stroke-linecap="round" stroke-linejoin="round"/>
</svg>
