<svg width="25" height="24" viewBox="0 0 25 24" fill="none" xmlns="http://www.w3.org/2000/svg">
<path d="M17.251 18.43H13.251L8.80096 21.39C8.14096 21.83 7.25098 21.36 7.25098 20.56V18.43C4.25098 18.43 2.25098 16.43 2.25098 13.43V7.42993C2.25098 4.42993 4.25098 2.42993 7.25098 2.42993H17.251C20.251 2.42993 22.251 4.42993 22.251 7.42993V13.43C22.251 16.43 20.251 18.43 17.251 18.43Z" stroke="#282A37" stroke-width="1.5" stroke-miterlimit="10" stroke-linecap="round" stroke-linejoin="round"/>
<path d="M12.251 11.36V11.15C12.251 10.47 12.6711 10.11 13.0911 9.82001C13.5011 9.54001 13.911 9.18002 13.911 8.52002C13.911 7.60002 13.171 6.85999 12.251 6.85999C11.331 6.85999 10.5911 7.60002 10.5911 8.52002" stroke="#282A37" stroke-width="1.5" stroke-linecap="round" stroke-linejoin="round"/>
<path d="M12.2465 13.75H12.2555" stroke="#282A37" stroke-width="1.5" stroke-linecap="round" stroke-linejoin="round"/>
</svg>
