<svg width="21" height="20" viewBox="0 0 21 20" fill="none" xmlns="http://www.w3.org/2000/svg">
<path fill-rule="evenodd" clip-rule="evenodd" d="M14.1007 0.160804C14.7317 0.160804 15.3617 0.249804 15.9607 0.450804C19.6517 1.6508 20.9817 5.7008 19.8707 9.2408C19.2407 11.0498 18.2107 12.7008 16.8617 14.0498C14.9307 15.9198 12.8117 17.5798 10.5307 19.0098L10.2807 19.1608L10.0207 18.9998C7.73175 17.5798 5.60075 15.9198 3.65175 14.0398C2.31175 12.6908 1.28075 11.0498 0.640749 9.2408C-0.489251 5.7008 0.840749 1.6508 4.57175 0.429804C4.86175 0.329804 5.16075 0.259804 5.46075 0.220804H5.58075C5.86175 0.179804 6.14075 0.160804 6.42075 0.160804H6.53075C7.16075 0.179804 7.77075 0.289804 8.36175 0.490804H8.42075C8.46075 0.509804 8.49075 0.530804 8.51075 0.549804C8.73175 0.620804 8.94075 0.700804 9.14075 0.810804L9.52075 0.980804C9.61257 1.02978 9.71563 1.1046 9.80471 1.16927C9.86114 1.21025 9.91196 1.24715 9.95075 1.2708C9.96707 1.28043 9.98365 1.29011 10.0004 1.29987C10.0861 1.34993 10.1754 1.40206 10.2507 1.4598C11.3617 0.610804 12.7107 0.150804 14.1007 0.160804ZM16.7607 7.3608C17.1707 7.3498 17.5207 7.0208 17.5507 6.5998V6.4808C17.5807 5.0798 16.7317 3.8108 15.4407 3.3208C15.0307 3.1798 14.5807 3.4008 14.4307 3.8208C14.2907 4.2408 14.5107 4.7008 14.9307 4.8498C15.5717 5.0898 16.0007 5.7208 16.0007 6.4198V6.4508C15.9817 6.6798 16.0507 6.9008 16.1907 7.0708C16.3307 7.2408 16.5407 7.3398 16.7607 7.3608Z" fill="#FF1010"/>
</svg>
