<svg width="19" height="18" viewBox="0 0 19 18" fill="none" xmlns="http://www.w3.org/2000/svg">
<path d="M13.4937 12.4928L10.3115 15.675C10.1723 15.8143 10.0071 15.9248 9.82515 16.0002C9.64325 16.0756 9.44827 16.1145 9.25135 16.1145C9.05444 16.1145 8.85946 16.0756 8.67756 16.0002C8.49566 15.9248 8.3304 15.8143 8.19123 15.675L5.00823 12.4928C4.16915 11.6536 3.59773 10.5845 3.36624 9.42067C3.13476 8.25679 3.2536 7.05041 3.70773 5.95407C4.16187 4.85773 4.9309 3.92068 5.91759 3.2614C6.90428 2.60213 8.0643 2.25024 9.25098 2.25024C10.4377 2.25024 11.5977 2.60213 12.5844 3.2614C13.5711 3.92068 14.3401 4.85773 14.7942 5.95407C15.2484 7.05041 15.3672 8.25679 15.1357 9.42067C14.9042 10.5845 14.3328 11.6536 13.4937 12.4928V12.4928Z" stroke="#829097" stroke-width="1.125" stroke-linecap="round" stroke-linejoin="round"/>
<path d="M11.501 8.25C11.501 8.84674 11.2639 9.41903 10.842 9.84099C10.42 10.2629 9.84771 10.5 9.25098 10.5C8.65424 10.5 8.08194 10.2629 7.65999 9.84099C7.23803 9.41903 7.00098 8.84674 7.00098 8.25C7.00098 7.65326 7.23803 7.08097 7.65999 6.65901C8.08194 6.23705 8.65424 6 9.25098 6C9.84771 6 10.42 6.23705 10.842 6.65901C11.2639 7.08097 11.501 7.65326 11.501 8.25V8.25Z" stroke="#829097" stroke-width="1.125" stroke-linecap="round" stroke-linejoin="round"/>
</svg>
