<svg width="34" height="33" viewBox="0 0 34 33" fill="none" xmlns="http://www.w3.org/2000/svg">
<rect x="0.491211" y="0.185059" width="32.6299" height="32.6299" rx="8" fill="#F3F9FF"/>
<g clip-path="url(#clip0_1_1553)">
<path d="M16.8066 19.375C18.3945 19.375 19.6816 18.0878 19.6816 16.5C19.6816 14.9122 18.3945 13.625 16.8066 13.625C15.2188 13.625 13.9316 14.9122 13.9316 16.5C13.9316 18.0878 15.2188 19.375 16.8066 19.375Z" stroke="black" stroke-width="1.5" stroke-linecap="round" stroke-linejoin="round"/>
<path d="M23.898 19.3752C23.7704 19.6642 23.7324 19.9848 23.7887 20.2957C23.8451 20.6066 23.9933 20.8935 24.2142 21.1193L24.2717 21.1768C24.4499 21.3548 24.5913 21.5662 24.6878 21.7989C24.7842 22.0316 24.8339 22.281 24.8339 22.5329C24.8339 22.7848 24.7842 23.0342 24.6878 23.2668C24.5913 23.4995 24.4499 23.7109 24.2717 23.8889C24.0937 24.0671 23.8823 24.2085 23.6497 24.3049C23.417 24.4014 23.1676 24.451 22.9157 24.451C22.6638 24.451 22.4144 24.4014 22.1817 24.3049C21.949 24.2085 21.7377 24.0671 21.5596 23.8889L21.5021 23.8314C21.2763 23.6105 20.9894 23.4623 20.6785 23.4059C20.3677 23.3495 20.047 23.3876 19.758 23.5152C19.4745 23.6366 19.2328 23.8384 19.0625 24.0955C18.8923 24.3526 18.8009 24.6539 18.7996 24.9622V25.1252C18.7996 25.6335 18.5977 26.121 18.2383 26.4805C17.8788 26.8399 17.3913 27.0418 16.883 27.0418C16.3747 27.0418 15.8871 26.8399 15.5277 26.4805C15.1682 26.121 14.9663 25.6335 14.9663 25.1252V25.0389C14.9589 24.7217 14.8562 24.4141 14.6716 24.156C14.4871 23.8979 14.2291 23.7014 13.9313 23.5918C13.6423 23.4643 13.3216 23.4262 13.0108 23.4826C12.6999 23.5389 12.413 23.6871 12.1871 23.9081L12.1296 23.9656C11.9516 24.1438 11.7403 24.2852 11.5076 24.3816C11.2749 24.4781 11.0255 24.5277 10.7736 24.5277C10.5217 24.5277 10.2723 24.4781 10.0396 24.3816C9.80696 24.2852 9.59557 24.1438 9.41757 23.9656C9.23936 23.7876 9.09799 23.5762 9.00153 23.3435C8.90508 23.1108 8.85543 22.8614 8.85543 22.6095C8.85543 22.3577 8.90508 22.1082 9.00153 21.8756C9.09799 21.6429 9.23936 21.4315 9.41757 21.2535L9.47507 21.196C9.696 20.9701 9.8442 20.6833 9.90057 20.3724C9.95694 20.0615 9.91888 19.7409 9.79132 19.4518C9.66983 19.1684 9.46812 18.9266 9.21101 18.7564C8.9539 18.5861 8.65261 18.4947 8.34423 18.4935H8.18132C7.67298 18.4935 7.18547 18.2916 6.82603 17.9321C6.46658 17.5727 6.26465 17.0852 6.26465 16.5768C6.26465 16.0685 6.46658 15.581 6.82603 15.2215C7.18547 14.8621 7.67298 14.6602 8.18132 14.6602H8.26757C8.58477 14.6527 8.8924 14.5501 9.15048 14.3655C9.40855 14.1809 9.60513 13.923 9.71465 13.6252C9.84222 13.3361 9.88027 13.0155 9.8239 12.7046C9.76753 12.3937 9.61933 12.1069 9.3984 11.881L9.3409 11.8235C9.16269 11.6455 9.02132 11.4341 8.92487 11.2014C8.82841 10.9687 8.77877 10.7193 8.77877 10.4675C8.77877 10.2156 8.82841 9.96617 8.92487 9.73349C9.02132 9.50081 9.16269 9.28942 9.3409 9.11141C9.51891 8.93321 9.73029 8.79184 9.96297 8.69538C10.1957 8.59893 10.4451 8.54928 10.6969 8.54928C10.9488 8.54928 11.1982 8.59893 11.4309 8.69538C11.6636 8.79184 11.875 8.93321 12.053 9.11141L12.1105 9.16891C12.3363 9.38984 12.6232 9.53805 12.9341 9.59442C13.245 9.65079 13.5656 9.61273 13.8546 9.48516H13.9313C14.2148 9.36368 14.4565 9.16197 14.6268 8.90486C14.797 8.64775 14.8884 8.34646 14.8896 8.03808V7.87516C14.8896 7.36683 15.0916 6.87932 15.451 6.51987C15.8105 6.16043 16.298 5.9585 16.8063 5.9585C17.3146 5.9585 17.8022 6.16043 18.1616 6.51987C18.521 6.87932 18.723 7.36683 18.723 7.87516V7.96141C18.7242 8.26979 18.8156 8.57108 18.9859 8.82819C19.1561 9.0853 19.3979 9.28702 19.6813 9.4085C19.9704 9.53606 20.291 9.57412 20.6019 9.51775C20.9128 9.46138 21.1996 9.31318 21.4255 9.09225L21.483 9.03475C21.661 8.85654 21.8724 8.71517 22.1051 8.61872C22.3377 8.52226 22.5871 8.47261 22.839 8.47261C23.0909 8.47261 23.3403 8.52226 23.573 8.61872C23.8057 8.71517 24.0171 8.85654 24.1951 9.03475C24.3733 9.21275 24.5146 9.42414 24.6111 9.65682C24.7076 9.8895 24.7572 10.1389 24.7572 10.3908C24.7572 10.6427 24.7076 10.8921 24.6111 11.1248C24.5146 11.3574 24.3733 11.5688 24.1951 11.7468L24.1376 11.8043C23.9166 12.0302 23.7684 12.3171 23.7121 12.6279C23.6557 12.9388 23.6937 13.2594 23.8213 13.5485V13.6252C23.9428 13.9086 24.1445 14.1503 24.4016 14.3206C24.6587 14.4909 24.96 14.5823 25.2684 14.5835H25.4313C25.9396 14.5835 26.4272 14.7854 26.7866 15.1449C27.146 15.5043 27.348 15.9918 27.348 16.5002C27.348 17.0085 27.146 17.496 26.7866 17.8555C26.4272 18.2149 25.9396 18.4168 25.4313 18.4168H25.3451C25.0367 18.4181 24.7354 18.5094 24.4783 18.6797C24.2212 18.85 24.0195 19.0917 23.898 19.3752Z" stroke="black" stroke-width="1.5" stroke-linecap="round" stroke-linejoin="round"/>
</g>
<defs>
<clipPath id="clip0_1_1553">
<rect width="23" height="23" fill="white" transform="translate(5.30664 5)"/>
</clipPath>
</defs>
</svg>
