<svg width="21" height="20" viewBox="0 0 21 20" fill="none" xmlns="http://www.w3.org/2000/svg">
<path fill-rule="evenodd" clip-rule="evenodd" d="M14.9003 11.5743C15.4626 11.5743 15.9345 12.0383 15.8485 12.5936C15.3441 15.8603 12.5476 18.2857 9.17484 18.2857C5.44326 18.2857 2.4187 15.2611 2.4187 11.5304C2.4187 8.45674 4.75379 5.59359 7.38274 4.94622C7.94765 4.80674 8.5266 5.20411 8.5266 5.78569C8.5266 9.72604 8.65905 10.7453 9.4073 11.2997C10.1555 11.8541 11.0354 11.5743 14.9003 11.5743Z" stroke="#87C1FB" stroke-width="1.2" stroke-linecap="round" stroke-linejoin="round"/>
<path fill-rule="evenodd" clip-rule="evenodd" d="M18.5792 8.293C18.624 5.76142 15.5143 1.68072 11.7248 1.75089C11.4301 1.75616 11.1941 2.00177 11.181 2.29563C11.0854 4.37721 11.2143 7.07458 11.2862 8.29738C11.3082 8.67809 11.6073 8.97721 11.9871 8.99914C13.2441 9.07107 16.0398 9.16931 18.0915 8.85879C18.3705 8.81668 18.5748 8.57458 18.5792 8.293Z" stroke="#87C1FB" stroke-width="1.2" stroke-linecap="round" stroke-linejoin="round"/>
</svg>
